<svg width="534" height="284" viewBox="0 0 534 284" fill="none" xmlns="http://www.w3.org/2000/svg">
<path d="M191.667 33.3333H291.667C300.867 33.3333 308.333 25.8667 308.333 16.6667C308.333 7.46667 300.867 0 291.667 0H191.667C182.458 0 175 7.46667 175 16.6667C175 25.8667 182.458 33.3333 191.667 33.3333Z" fill="#F5F5F5" fill-opacity="0.5"/>
<path d="M91.6667 83.3333H291.667C300.867 83.3333 308.333 75.8667 308.333 66.6667C308.333 57.4667 300.867 50 291.667 50H91.6667C82.4583 50 75 57.4667 75 66.6667C75 75.8667 82.4583 83.3333 91.6667 83.3333Z" fill="#F5F5F5" fill-opacity="0.5"/>
<path d="M41.6584 133.333H241.667C250.867 133.333 258.333 125.867 258.333 116.667C258.333 107.467 250.867 100 241.667 100H41.6584C32.45 100 24.9917 107.467 24.9917 116.667C24.9917 125.867 32.45 133.333 41.6584 133.333Z" fill="#F5F5F5" fill-opacity="0.5"/>
<path d="M533.333 166.667C533.333 157.467 525.867 150 516.667 150H16.6667C7.45833 150 0 157.467 0 166.667C0 175.867 7.45833 183.333 16.6667 183.333H516.667C525.867 183.333 533.333 175.867 533.333 166.667Z" fill="#F5F5F5" fill-opacity="0.5"/>
<path d="M516.667 200H41.6667C32.4583 200 25 207.467 25 216.667C25 225.867 32.4583 233.333 41.6667 233.333H516.667C525.867 233.333 533.333 225.867 533.333 216.667C533.333 207.467 525.867 200 516.667 200Z" fill="#F5F5F5" fill-opacity="0.5"/>
<path d="M191.667 250L91.6667 249.992C82.4583 249.992 75 257.458 75 266.658C75 275.858 82.4583 283.325 91.6667 283.325L191.667 283.333C200.867 283.333 208.333 275.867 208.333 266.667C208.333 257.467 200.867 250 191.667 250Z" fill="#F5F5F5" fill-opacity="0.5"/>
<path d="M350 83.3333H416.667C425.867 83.3333 433.333 75.8667 433.333 66.6667C433.333 57.4667 425.867 50 416.667 50H350C340.792 50 333.333 57.4667 333.333 66.6667C333.333 75.8667 340.792 83.3333 350 83.3333Z" fill="#F5F5F5" fill-opacity="0.5"/>
<path d="M275 116.667C275 125.867 282.458 133.333 291.667 133.333H466.667C475.867 133.333 483.333 125.867 483.333 116.667C483.333 107.467 475.867 100 466.667 100H291.667C282.458 100 275 107.467 275 116.667Z" fill="#F5F5F5" fill-opacity="0.5"/>
<path d="M466.667 249.992L241.667 250C232.458 250 225 257.467 225 266.667C225 275.867 232.458 283.333 241.667 283.333L466.667 283.325C475.867 283.325 483.333 275.858 483.333 266.658C483.333 257.458 475.867 249.992 466.667 249.992Z" fill="#F5F5F5" fill-opacity="0.5"/>
</svg>
