<svg width="484" height="484" viewBox="0 0 484 484" fill="none" xmlns="http://www.w3.org/2000/svg">
<path d="M94.6667 297C85.4583 297 78 304.467 78 313.667V347C78 356.2 85.4583 363.667 94.6667 363.667C103.867 363.667 111.333 356.2 111.333 347V313.667C111.333 304.467 103.867 297 94.6667 297Z" fill="#42A5F5"/>
<path d="M94.6667 389C85.4583 389 78 396.467 78 405.667V439C78 448.2 85.4583 455.667 94.6667 455.667C103.867 455.667 111.333 448.2 111.333 439V405.667C111.333 396.467 103.867 389 94.6667 389Z" fill="#42A5F5"/>
<path d="M389.667 297C380.458 297 373 304.467 373 313.667V347C373 356.2 380.458 363.667 389.667 363.667C398.867 363.667 406.333 356.2 406.333 347V313.667C406.333 304.467 398.867 297 389.667 297Z" fill="#42A5F5"/>
<path d="M389.667 389C380.458 389 373 396.467 373 405.667V439C373 448.2 380.458 455.667 389.667 455.667C398.867 455.667 406.333 448.2 406.333 439V405.667C406.333 396.467 398.867 389 389.667 389Z" fill="#42A5F5"/>
<path d="M241.667 416.667C232.458 416.667 225 424.133 225 433.333V466.667C225 475.867 232.458 483.333 241.667 483.333C250.867 483.333 258.333 475.867 258.333 466.667V433.333C258.333 424.133 250.867 416.667 241.667 416.667ZM166.667 366.667C157.458 366.667 150 374.133 150 383.333V416.667C150 425.867 157.458 433.333 166.667 433.333C175.867 433.333 183.333 425.867 183.333 416.667V383.333C183.333 374.133 175.867 366.667 166.667 366.667ZM316.667 366.667C307.458 366.667 300 374.133 300 383.333V416.667C300 425.867 307.458 433.333 316.667 433.333C325.867 433.333 333.333 425.867 333.333 416.667V383.333C333.333 374.133 325.867 366.667 316.667 366.667ZM391.667 100C387.433 100 382.4 100.658 377.592 101.533C360.15 41.7666 305.525 0 241.667 0C177.8 0 123.175 41.7666 105.733 101.533C100.933 100.658 95.8917 100 91.6667 100C41.125 100 0 141.125 0 191.667C0 242.208 41.125 283.333 91.6667 283.333H150V316.667C150 325.867 157.458 333.333 166.667 333.333C175.867 333.333 183.333 325.867 183.333 316.667V283.333H300V316.667C300 325.867 307.458 333.333 316.667 333.333C325.867 333.333 333.333 325.867 333.333 316.667V283.333H391.667C442.208 283.333 483.333 242.208 483.333 191.667C483.333 141.125 442.208 100 391.667 100ZM391.667 250H91.6667C59.5083 250 33.3333 223.825 33.3333 191.667C33.3333 159.508 59.5083 133.333 91.6667 133.333C93.975 133.333 97.6917 133.9 101.608 134.683V150C101.608 159.2 109.067 166.667 118.275 166.667C127.483 166.667 134.942 159.2 134.942 150V123.175C143.883 71.0667 188.575 33.3333 241.667 33.3333C294.75 33.3333 339.442 71.0667 348.392 123.183V150C348.392 159.2 355.858 166.667 365.058 166.667C374.258 166.667 381.725 159.2 381.725 150V134.692C385.642 133.908 389.383 133.333 391.667 133.333C423.825 133.333 450 159.508 450 191.667C450 223.825 423.825 250 391.667 250ZM241.667 316.667C232.458 316.667 225 324.133 225 333.333V366.667C225 375.867 232.458 383.333 241.667 383.333C250.867 383.333 258.333 375.867 258.333 366.667V333.333C258.333 324.133 250.867 316.667 241.667 316.667Z" fill="#42A5F5"/>
</svg>
