<svg width="492" height="417" viewBox="0 0 492 417" fill="none" xmlns="http://www.w3.org/2000/svg">
<path d="M225 166.667V316.667C225 325.867 232.458 333.333 241.667 333.333C250.867 333.333 258.333 325.867 258.333 316.667V166.667C258.333 157.467 250.867 150 241.667 150C232.458 150 225 157.458 225 166.667Z" fill="#006BB9"/>
<path d="M33.3333 325H16.6667C7.45833 325 0 332.467 0 341.667V358.333C0 367.533 7.45833 375 16.6667 375H33.3333C42.5333 375 50 367.533 50 358.333V341.667C50 332.458 42.5333 325 33.3333 325Z" fill="#006BB9"/>
<path d="M250 366.667H233.333C224.125 366.667 216.667 374.134 216.667 383.334V400C216.667 409.2 224.125 416.667 233.333 416.667H250C259.2 416.667 266.667 409.2 266.667 400V383.334C266.667 374.125 259.2 366.667 250 366.667Z" fill="#006BB9"/>
<path d="M475 300H458.333C449.125 300 441.667 307.467 441.667 316.667V333.333C441.667 342.533 449.125 350 458.333 350H475C484.2 350 491.667 342.533 491.667 333.333V316.667C491.667 307.458 484.2 300 475 300Z" fill="#006BB9"/>
<path d="M91.6667 283.333H108.333C117.533 283.333 125 275.867 125 266.667C125 257.467 117.533 250 108.333 250H91.6667C59.5083 250 33.3333 223.825 33.3333 191.667C33.3333 159.508 59.5083 133.333 91.6667 133.333C93.975 133.333 97.6917 133.9 101.608 134.683V150C101.608 159.2 109.067 166.667 118.275 166.667C127.483 166.667 134.942 159.2 134.942 150V123.175C143.883 71.0667 188.575 33.3333 241.667 33.3333C294.767 33.3333 339.467 71.0833 348.392 123.217V150C348.392 159.2 355.858 166.667 365.058 166.667C374.258 166.667 381.725 159.2 381.725 150V134.692C385.658 133.908 389.383 133.333 391.667 133.333C423.825 133.333 450 159.508 450 191.667C450 223.825 423.825 250 391.667 250H375C365.792 250 358.333 257.467 358.333 266.667C358.333 275.867 365.792 283.333 375 283.333H391.667C442.208 283.333 483.333 242.208 483.333 191.667C483.333 141.125 442.208 100 391.667 100C387.433 100 382.4 100.658 377.583 101.533C360.15 41.7667 305.525 0 241.667 0C177.8 0 123.175 41.7667 105.733 101.533C100.933 100.667 95.8833 100 91.6667 100C41.125 100 0 141.125 0 191.667C0 242.208 41.125 283.333 91.6667 283.333Z" fill="#006BB9"/>
<path d="M166.667 200C157.458 200 150 207.467 150 216.667V342.283C140.183 336.592 128.8 333.342 116.667 333.342H99.9999C90.7916 333.342 83.3333 340.808 83.3333 350.008C83.3333 359.208 90.7916 366.675 99.9999 366.675H116.667C135.05 366.675 150 381.625 150 400.008C150 409.208 157.458 416.675 166.667 416.675C175.867 416.675 183.333 409.208 183.333 400.008V216.667C183.333 207.458 175.867 200 166.667 200Z" fill="#006BB9"/>
<path d="M391.667 308.333C369.525 308.333 349.192 316.225 333.333 329.342V216.667C333.333 207.467 325.867 200 316.667 200C307.458 200 300 207.467 300 216.667V400C300 409.2 307.458 416.675 316.667 416.675C325.867 416.675 333.333 409.208 333.333 400.008C333.333 367.85 359.508 341.667 391.667 341.667C400.867 341.667 408.333 334.2 408.333 325C408.333 315.8 400.867 308.333 391.667 308.333Z" fill="#006BB9"/>
</svg>
