<svg width="484" height="506" viewBox="0 0 484 506" fill="none" xmlns="http://www.w3.org/2000/svg">
<mask id="path-1-inside-1_214_24" fill="white">
<path d="M314.313 185.099L297.661 176.692L307.137 174.473C309.997 173.802 311.694 171.231 310.927 168.733C310.163 166.234 307.217 164.737 304.363 165.419L284.532 170.064L269.808 162.632L287.32 158.528C289.531 158.01 291.124 156.323 291.282 154.323C291.44 152.327 290.129 150.463 288.02 149.685L272.572 143.976L284.535 137.936L304.36 142.579C304.826 142.689 305.293 142.741 305.751 142.741C308.121 142.741 310.284 141.358 310.927 139.265C311.694 136.764 309.994 134.193 307.137 133.525L297.669 131.308L314.318 122.903C316.883 121.607 317.76 118.743 316.283 116.5C314.798 114.257 311.52 113.488 308.957 114.784L292.311 123.187L294.844 114.913C295.611 112.412 293.911 109.841 291.054 109.173C288.175 108.494 285.256 109.989 284.489 112.487L279.182 129.817L267.219 135.857L269.286 121.309C269.554 119.439 268.514 117.613 266.648 116.671C264.785 115.734 262.45 115.858 260.735 116.992L247.365 125.83V113.755L261.871 101.071C263.965 99.2406 263.965 96.2734 261.871 94.443C259.778 92.6125 256.384 92.6125 254.291 94.443L247.365 100.499V83.6875C247.365 81.1 244.963 79 242.004 79C239.042 79 236.643 81.1 236.643 83.6875V100.502L229.708 94.4359C227.615 92.6055 224.221 92.6055 222.128 94.4359C220.034 96.2641 220.034 99.2336 222.128 101.064L236.643 113.758V125.828L223.264 116.976C221.436 115.766 218.935 115.708 217.037 116.826C215.137 117.944 214.258 119.995 214.853 121.928L219.549 137.256L204.825 129.824L199.51 112.49C198.746 109.991 195.803 108.498 192.945 109.176C190.085 109.846 188.388 112.417 189.155 114.916L191.691 123.191L175.042 114.787C172.472 113.491 169.199 114.259 167.719 116.502C166.239 118.745 167.116 121.612 169.681 122.905L186.327 131.308L176.865 133.525C174.005 134.195 172.308 136.766 173.075 139.265C173.715 141.36 175.881 142.741 178.251 142.741C178.709 142.738 179.178 142.689 179.642 142.579L199.461 137.936L214.183 145.368L196.682 149.47C194.47 149.988 192.878 151.675 192.723 153.674C192.565 155.671 193.875 157.534 195.985 158.312L211.425 164.022L199.459 170.062L179.647 165.419C176.793 164.741 173.847 166.234 173.083 168.733C172.316 171.231 174.013 173.802 176.873 174.473L186.327 176.69L169.687 185.09C167.121 186.386 166.245 189.25 167.724 191.493C168.719 192.998 170.52 193.837 172.372 193.837C173.281 193.837 174.206 193.635 175.048 193.209L191.701 184.802L189.163 193.087C188.396 195.585 190.093 198.156 192.953 198.827C193.417 198.937 193.886 198.988 194.342 198.988C196.709 198.988 198.874 197.605 199.518 195.512L204.831 178.173L216.788 172.138L214.722 186.688C214.453 188.556 215.494 190.382 217.359 191.327C219.225 192.264 221.557 192.14 223.272 191.005L236.64 182.167V194.245L222.125 206.936C220.032 208.766 220.032 211.734 222.125 213.564C224.219 215.395 227.612 215.395 229.706 213.564L236.64 207.501V224.312C236.64 226.9 239.039 229 242.001 229C244.96 229 247.362 226.9 247.362 224.312V207.505L254.291 213.564C255.339 214.48 256.709 214.938 258.081 214.938C259.454 214.938 260.823 214.48 261.871 213.564C263.965 211.734 263.965 208.766 261.871 206.936L247.362 194.249V182.174L260.748 191.027C261.7 191.657 262.839 191.976 263.981 191.976C265.026 191.976 266.069 191.711 266.975 191.177C268.876 190.056 269.752 188.005 269.157 186.072L264.455 170.755L279.182 178.19L284.487 195.515C285.127 197.61 287.293 198.991 289.663 198.991C290.121 198.991 290.588 198.939 291.054 198.829C293.911 198.161 295.611 195.59 294.844 193.089L292.314 184.82L308.954 193.22C309.801 193.647 310.721 193.848 311.629 193.848C313.482 193.848 315.283 193.009 316.277 191.505C317.757 189.259 316.881 186.393 314.313 185.099ZM269.468 153.004L256.677 156.002L252.712 154L260.933 149.849L269.468 153.004ZM257.079 131.153L255.575 141.728L247.359 145.877V137.582L257.079 131.153ZM229.242 132.693L236.637 137.584V145.886L232.67 143.884L229.242 132.693ZM214.518 154.996L227.301 152.001L231.263 154L223.047 158.151L214.518 154.996ZM226.91 176.845L228.411 166.267L236.64 162.114V170.413L226.91 176.845ZM254.755 175.309L247.362 170.423V162.126L251.321 164.127L254.755 175.309Z"/>
</mask>
<path d="M314.313 185.099L297.661 176.692L307.137 174.473C309.997 173.802 311.694 171.231 310.927 168.733C310.163 166.234 307.217 164.737 304.363 165.419L284.532 170.064L269.808 162.632L287.32 158.528C289.531 158.01 291.124 156.323 291.282 154.323C291.44 152.327 290.129 150.463 288.02 149.685L272.572 143.976L284.535 137.936L304.36 142.579C304.826 142.689 305.293 142.741 305.751 142.741C308.121 142.741 310.284 141.358 310.927 139.265C311.694 136.764 309.994 134.193 307.137 133.525L297.669 131.308L314.318 122.903C316.883 121.607 317.76 118.743 316.283 116.5C314.798 114.257 311.52 113.488 308.957 114.784L292.311 123.187L294.844 114.913C295.611 112.412 293.911 109.841 291.054 109.173C288.175 108.494 285.256 109.989 284.489 112.487L279.182 129.817L267.219 135.857L269.286 121.309C269.554 119.439 268.514 117.613 266.648 116.671C264.785 115.734 262.45 115.858 260.735 116.992L247.365 125.83V113.755L261.871 101.071C263.965 99.2406 263.965 96.2734 261.871 94.443C259.778 92.6125 256.384 92.6125 254.291 94.443L247.365 100.499V83.6875C247.365 81.1 244.963 79 242.004 79C239.042 79 236.643 81.1 236.643 83.6875V100.502L229.708 94.4359C227.615 92.6055 224.221 92.6055 222.128 94.4359C220.034 96.2641 220.034 99.2336 222.128 101.064L236.643 113.758V125.828L223.264 116.976C221.436 115.766 218.935 115.708 217.037 116.826C215.137 117.944 214.258 119.995 214.853 121.928L219.549 137.256L204.825 129.824L199.51 112.49C198.746 109.991 195.803 108.498 192.945 109.176C190.085 109.846 188.388 112.417 189.155 114.916L191.691 123.191L175.042 114.787C172.472 113.491 169.199 114.259 167.719 116.502C166.239 118.745 167.116 121.612 169.681 122.905L186.327 131.308L176.865 133.525C174.005 134.195 172.308 136.766 173.075 139.265C173.715 141.36 175.881 142.741 178.251 142.741C178.709 142.738 179.178 142.689 179.642 142.579L199.461 137.936L214.183 145.368L196.682 149.47C194.47 149.988 192.878 151.675 192.723 153.674C192.565 155.671 193.875 157.534 195.985 158.312L211.425 164.022L199.459 170.062L179.647 165.419C176.793 164.741 173.847 166.234 173.083 168.733C172.316 171.231 174.013 173.802 176.873 174.473L186.327 176.69L169.687 185.09C167.121 186.386 166.245 189.25 167.724 191.493C168.719 192.998 170.52 193.837 172.372 193.837C173.281 193.837 174.206 193.635 175.048 193.209L191.701 184.802L189.163 193.087C188.396 195.585 190.093 198.156 192.953 198.827C193.417 198.937 193.886 198.988 194.342 198.988C196.709 198.988 198.874 197.605 199.518 195.512L204.831 178.173L216.788 172.138L214.722 186.688C214.453 188.556 215.494 190.382 217.359 191.327C219.225 192.264 221.557 192.14 223.272 191.005L236.64 182.167V194.245L222.125 206.936C220.032 208.766 220.032 211.734 222.125 213.564C224.219 215.395 227.612 215.395 229.706 213.564L236.64 207.501V224.312C236.64 226.9 239.039 229 242.001 229C244.96 229 247.362 226.9 247.362 224.312V207.505L254.291 213.564C255.339 214.48 256.709 214.938 258.081 214.938C259.454 214.938 260.823 214.48 261.871 213.564C263.965 211.734 263.965 208.766 261.871 206.936L247.362 194.249V182.174L260.748 191.027C261.7 191.657 262.839 191.976 263.981 191.976C265.026 191.976 266.069 191.711 266.975 191.177C268.876 190.056 269.752 188.005 269.157 186.072L264.455 170.755L279.182 178.19L284.487 195.515C285.127 197.61 287.293 198.991 289.663 198.991C290.121 198.991 290.588 198.939 291.054 198.829C293.911 198.161 295.611 195.59 294.844 193.089L292.314 184.82L308.954 193.22C309.801 193.647 310.721 193.848 311.629 193.848C313.482 193.848 315.283 193.009 316.277 191.505C317.757 189.259 316.881 186.393 314.313 185.099ZM269.468 153.004L256.677 156.002L252.712 154L260.933 149.849L269.468 153.004ZM257.079 131.153L255.575 141.728L247.359 145.877V137.582L257.079 131.153ZM229.242 132.693L236.637 137.584V145.886L232.67 143.884L229.242 132.693ZM214.518 154.996L227.301 152.001L231.263 154L223.047 158.151L214.518 154.996ZM226.91 176.845L228.411 166.267L236.64 162.114V170.413L226.91 176.845ZM254.755 175.309L247.362 170.423V162.126L251.321 164.127L254.755 175.309Z" fill="#EEEEEE" stroke="#42A5F5" stroke-width="6" mask="url(#path-1-inside-1_214_24)"/>
<path d="M391.667 100C387.433 100 382.4 100.658 377.592 101.533C360.15 41.7666 305.525 0 241.667 0C177.8 0 123.175 41.7666 105.733 101.533C100.933 100.658 95.8917 100 91.6667 100C41.125 100 0 141.125 0 191.667C0 242.208 41.125 283.333 91.6667 283.333C100.867 283.333 108.333 275.867 108.333 266.667C108.333 257.467 100.867 250 91.6667 250C59.5083 250 33.3333 223.825 33.3333 191.667C33.3333 159.508 59.5083 133.333 91.6667 133.333C93.975 133.333 97.7 133.9 101.617 134.683V150C101.617 159.2 109.083 166.667 118.283 166.667C127.483 166.667 134.95 159.2 134.95 150V123.133C143.908 71.0417 188.592 33.3333 241.667 33.3333C294.767 33.3333 339.467 71.0833 348.4 123.225V150C348.4 159.2 355.867 166.667 365.067 166.667C374.267 166.667 381.733 159.2 381.733 150V134.683C385.642 133.9 389.358 133.333 391.667 133.333C423.825 133.333 450 159.508 450 191.667C450 223.825 423.825 250 391.667 250C382.458 250 375 257.467 375 266.667C375 275.867 382.458 283.333 391.667 283.333C442.208 283.333 483.333 242.208 483.333 191.667C483.333 141.125 442.208 100 391.667 100Z" fill="#42A5F5"/>
<path d="M171.667 256.666C165.383 248.283 151.292 248.283 145.008 256.666C138.35 265.525 116.667 296.041 116.667 316.666C116.667 341.2 133.8 358.333 158.333 358.333C182.867 358.333 200 341.2 200 316.666C200 296.041 178.308 265.525 171.667 256.666Z" fill="#42A5F5"/>
<path d="M311.667 256.666C305.017 265.525 283.333 296.041 283.333 316.666C283.333 341.2 300.467 358.333 325 358.333C349.533 358.333 366.667 341.2 366.667 316.666C366.667 296.041 344.975 265.525 338.333 256.666C332.05 248.283 317.95 248.283 311.667 256.666Z" fill="#42A5F5"/>
<path d="M228.333 356.667C221.683 365.525 200 396.042 200 416.667C200 441.2 217.133 458.334 241.667 458.334C266.2 458.334 283.333 441.2 283.333 416.667C283.333 396.042 261.642 365.525 255 356.667C248.717 348.284 234.617 348.284 228.333 356.667Z" fill="#42A5F5"/>
<path d="M327.333 404.288C320.683 413.146 299 443.662 299 464.287C299 488.821 316.133 505.954 340.667 505.954C365.2 505.954 382.333 488.821 382.333 464.287C382.333 443.662 360.642 413.146 354 404.288C347.717 395.904 333.617 395.904 327.333 404.288Z" fill="#42A5F5"/>
<path d="M129.333 404.288C122.683 413.146 101 443.662 101 464.287C101 488.821 118.133 505.954 142.667 505.954C167.2 505.954 184.333 488.821 184.333 464.287C184.333 443.662 162.642 413.146 156 404.288C149.717 395.904 135.617 395.904 129.333 404.288Z" fill="#42A5F5"/>
</svg>
