<svg width="484" height="391" viewBox="0 0 484 391" fill="none" xmlns="http://www.w3.org/2000/svg">
<path d="M391.667 100C387.433 100 382.4 100.658 377.592 101.533C360.15 41.7666 305.525 0 241.667 0C177.8 0 123.175 41.7666 105.733 101.533C100.933 100.658 95.8917 100 91.6667 100C41.125 100 0 141.125 0 191.667C0 242.208 41.125 283.333 91.6667 283.333C100.867 283.333 108.333 275.867 108.333 266.667C108.333 257.467 100.867 250 91.6667 250C59.5083 250 33.3333 223.825 33.3333 191.667C33.3333 159.508 59.5083 133.333 91.6667 133.333C93.975 133.333 97.7 133.9 101.617 134.683V150C101.617 159.2 109.083 166.667 118.283 166.667C127.483 166.667 134.95 159.2 134.95 150V123.133C143.908 71.0417 188.592 33.3333 241.667 33.3333C294.767 33.3333 339.467 71.0833 348.4 123.225V150C348.4 159.2 355.867 166.667 365.067 166.667C374.267 166.667 381.733 159.2 381.733 150V134.683C385.642 133.9 389.358 133.333 391.667 133.333C423.825 133.333 450 159.508 450 191.667C450 223.825 423.825 250 391.667 250C382.458 250 375 257.467 375 266.667C375 275.867 382.458 283.333 391.667 283.333C442.208 283.333 483.333 242.208 483.333 191.667C483.333 141.125 442.208 100 391.667 100Z" fill="#42A5F5"/>
<path d="M156.267 254.906C151.743 248.87 141.597 248.87 137.073 254.906C132.279 261.284 116.667 283.256 116.667 298.106C116.667 315.77 129.003 328.106 146.667 328.106C164.331 328.106 176.667 315.77 176.667 298.106C176.667 283.256 161.049 261.284 156.267 254.906Z" fill="#42A5F5"/>
<path d="M346.6 254.527C342.076 248.491 331.93 248.491 327.406 254.527C322.612 260.905 307 282.877 307 297.727C307 315.391 319.336 327.727 337 327.727C354.664 327.727 367 315.391 367 297.727C367 282.877 351.382 260.905 346.6 254.527Z" fill="#42A5F5"/>
<path d="M228.333 289.287C221.683 298.146 200 328.662 200 349.287C200 373.821 217.133 390.954 241.667 390.954C266.2 390.954 283.333 373.821 283.333 349.287C283.333 328.662 261.642 298.146 255 289.287C248.717 280.904 234.617 280.904 228.333 289.287Z" fill="#42A5F5"/>
<mask id="path-5-inside-1_214_22" fill="white">
<path d="M314.313 193.099L297.661 184.692L307.137 182.473C309.997 181.802 311.694 179.231 310.927 176.733C310.163 174.234 307.217 172.737 304.363 173.419L284.532 178.064L269.808 170.632L287.32 166.528C289.531 166.01 291.124 164.323 291.282 162.323C291.44 160.327 290.129 158.463 288.02 157.685L272.572 151.976L284.535 145.936L304.36 150.579C304.826 150.689 305.293 150.741 305.751 150.741C308.121 150.741 310.284 149.358 310.927 147.265C311.694 144.764 309.994 142.193 307.137 141.525L297.669 139.308L314.318 130.903C316.883 129.607 317.76 126.743 316.283 124.5C314.798 122.257 311.52 121.488 308.957 122.784L292.311 131.187L294.844 122.913C295.611 120.412 293.911 117.841 291.054 117.173C288.175 116.494 285.256 117.989 284.489 120.487L279.182 137.817L267.219 143.857L269.286 129.309C269.554 127.439 268.514 125.613 266.648 124.671C264.785 123.734 262.45 123.858 260.735 124.992L247.365 133.83V121.755L261.871 109.071C263.965 107.241 263.965 104.273 261.871 102.443C259.778 100.613 256.384 100.613 254.291 102.443L247.365 108.499V91.6875C247.365 89.1 244.963 87 242.004 87C239.042 87 236.643 89.1 236.643 91.6875V108.502L229.708 102.436C227.615 100.605 224.221 100.605 222.128 102.436C220.034 104.264 220.034 107.234 222.128 109.064L236.643 121.758V133.828L223.264 124.976C221.436 123.766 218.935 123.708 217.037 124.826C215.137 125.944 214.258 127.995 214.853 129.928L219.549 145.256L204.825 137.824L199.51 120.49C198.746 117.991 195.803 116.498 192.945 117.176C190.085 117.846 188.388 120.417 189.155 122.916L191.691 131.191L175.042 122.787C172.472 121.491 169.199 122.259 167.719 124.502C166.239 126.745 167.116 129.612 169.681 130.905L186.327 139.308L176.865 141.525C174.005 142.195 172.308 144.766 173.075 147.265C173.715 149.36 175.881 150.741 178.251 150.741C178.709 150.738 179.178 150.689 179.642 150.579L199.461 145.936L214.183 153.368L196.682 157.47C194.47 157.988 192.878 159.675 192.723 161.674C192.565 163.671 193.875 165.534 195.985 166.312L211.425 172.022L199.459 178.062L179.647 173.419C176.793 172.741 173.847 174.234 173.083 176.733C172.316 179.231 174.013 181.802 176.873 182.473L186.327 184.69L169.687 193.09C167.121 194.386 166.245 197.25 167.724 199.493C168.719 200.998 170.52 201.837 172.372 201.837C173.281 201.837 174.206 201.635 175.048 201.209L191.701 192.802L189.163 201.087C188.396 203.585 190.093 206.156 192.953 206.827C193.417 206.937 193.886 206.988 194.342 206.988C196.709 206.988 198.874 205.605 199.518 203.512L204.831 186.173L216.788 180.138L214.722 194.688C214.453 196.556 215.494 198.382 217.359 199.327C219.225 200.264 221.557 200.14 223.272 199.005L236.64 190.167V202.245L222.125 214.936C220.032 216.766 220.032 219.734 222.125 221.564C224.219 223.395 227.612 223.395 229.706 221.564L236.64 215.501V232.312C236.64 234.9 239.039 237 242.001 237C244.96 237 247.362 234.9 247.362 232.312V215.505L254.291 221.564C255.339 222.48 256.709 222.938 258.081 222.938C259.454 222.938 260.823 222.48 261.871 221.564C263.965 219.734 263.965 216.766 261.871 214.936L247.362 202.249V190.174L260.748 199.027C261.7 199.657 262.839 199.976 263.981 199.976C265.026 199.976 266.069 199.711 266.975 199.177C268.876 198.056 269.752 196.005 269.157 194.072L264.455 178.755L279.182 186.19L284.487 203.515C285.127 205.61 287.293 206.991 289.663 206.991C290.121 206.991 290.588 206.939 291.054 206.829C293.911 206.161 295.611 203.59 294.844 201.089L292.314 192.82L308.954 201.22C309.801 201.647 310.721 201.848 311.629 201.848C313.482 201.848 315.283 201.009 316.277 199.505C317.757 197.259 316.881 194.393 314.313 193.099ZM269.468 161.004L256.677 164.002L252.712 162L260.933 157.849L269.468 161.004ZM257.079 139.153L255.575 149.728L247.359 153.877V145.582L257.079 139.153ZM229.242 140.693L236.637 145.584V153.886L232.67 151.884L229.242 140.693ZM214.518 162.996L227.301 160.001L231.263 162L223.047 166.151L214.518 162.996ZM226.91 184.845L228.411 174.267L236.64 170.114V178.413L226.91 184.845ZM254.755 183.309L247.362 178.423V170.126L251.321 172.127L254.755 183.309Z"/>
</mask>
<path d="M314.313 193.099L297.661 184.692L307.137 182.473C309.997 181.802 311.694 179.231 310.927 176.733C310.163 174.234 307.217 172.737 304.363 173.419L284.532 178.064L269.808 170.632L287.32 166.528C289.531 166.01 291.124 164.323 291.282 162.323C291.44 160.327 290.129 158.463 288.02 157.685L272.572 151.976L284.535 145.936L304.36 150.579C304.826 150.689 305.293 150.741 305.751 150.741C308.121 150.741 310.284 149.358 310.927 147.265C311.694 144.764 309.994 142.193 307.137 141.525L297.669 139.308L314.318 130.903C316.883 129.607 317.76 126.743 316.283 124.5C314.798 122.257 311.52 121.488 308.957 122.784L292.311 131.187L294.844 122.913C295.611 120.412 293.911 117.841 291.054 117.173C288.175 116.494 285.256 117.989 284.489 120.487L279.182 137.817L267.219 143.857L269.286 129.309C269.554 127.439 268.514 125.613 266.648 124.671C264.785 123.734 262.45 123.858 260.735 124.992L247.365 133.83V121.755L261.871 109.071C263.965 107.241 263.965 104.273 261.871 102.443C259.778 100.613 256.384 100.613 254.291 102.443L247.365 108.499V91.6875C247.365 89.1 244.963 87 242.004 87C239.042 87 236.643 89.1 236.643 91.6875V108.502L229.708 102.436C227.615 100.605 224.221 100.605 222.128 102.436C220.034 104.264 220.034 107.234 222.128 109.064L236.643 121.758V133.828L223.264 124.976C221.436 123.766 218.935 123.708 217.037 124.826C215.137 125.944 214.258 127.995 214.853 129.928L219.549 145.256L204.825 137.824L199.51 120.49C198.746 117.991 195.803 116.498 192.945 117.176C190.085 117.846 188.388 120.417 189.155 122.916L191.691 131.191L175.042 122.787C172.472 121.491 169.199 122.259 167.719 124.502C166.239 126.745 167.116 129.612 169.681 130.905L186.327 139.308L176.865 141.525C174.005 142.195 172.308 144.766 173.075 147.265C173.715 149.36 175.881 150.741 178.251 150.741C178.709 150.738 179.178 150.689 179.642 150.579L199.461 145.936L214.183 153.368L196.682 157.47C194.47 157.988 192.878 159.675 192.723 161.674C192.565 163.671 193.875 165.534 195.985 166.312L211.425 172.022L199.459 178.062L179.647 173.419C176.793 172.741 173.847 174.234 173.083 176.733C172.316 179.231 174.013 181.802 176.873 182.473L186.327 184.69L169.687 193.09C167.121 194.386 166.245 197.25 167.724 199.493C168.719 200.998 170.52 201.837 172.372 201.837C173.281 201.837 174.206 201.635 175.048 201.209L191.701 192.802L189.163 201.087C188.396 203.585 190.093 206.156 192.953 206.827C193.417 206.937 193.886 206.988 194.342 206.988C196.709 206.988 198.874 205.605 199.518 203.512L204.831 186.173L216.788 180.138L214.722 194.688C214.453 196.556 215.494 198.382 217.359 199.327C219.225 200.264 221.557 200.14 223.272 199.005L236.64 190.167V202.245L222.125 214.936C220.032 216.766 220.032 219.734 222.125 221.564C224.219 223.395 227.612 223.395 229.706 221.564L236.64 215.501V232.312C236.64 234.9 239.039 237 242.001 237C244.96 237 247.362 234.9 247.362 232.312V215.505L254.291 221.564C255.339 222.48 256.709 222.938 258.081 222.938C259.454 222.938 260.823 222.48 261.871 221.564C263.965 219.734 263.965 216.766 261.871 214.936L247.362 202.249V190.174L260.748 199.027C261.7 199.657 262.839 199.976 263.981 199.976C265.026 199.976 266.069 199.711 266.975 199.177C268.876 198.056 269.752 196.005 269.157 194.072L264.455 178.755L279.182 186.19L284.487 203.515C285.127 205.61 287.293 206.991 289.663 206.991C290.121 206.991 290.588 206.939 291.054 206.829C293.911 206.161 295.611 203.59 294.844 201.089L292.314 192.82L308.954 201.22C309.801 201.647 310.721 201.848 311.629 201.848C313.482 201.848 315.283 201.009 316.277 199.505C317.757 197.259 316.881 194.393 314.313 193.099ZM269.468 161.004L256.677 164.002L252.712 162L260.933 157.849L269.468 161.004ZM257.079 139.153L255.575 149.728L247.359 153.877V145.582L257.079 139.153ZM229.242 140.693L236.637 145.584V153.886L232.67 151.884L229.242 140.693ZM214.518 162.996L227.301 160.001L231.263 162L223.047 166.151L214.518 162.996ZM226.91 184.845L228.411 174.267L236.64 170.114V178.413L226.91 184.845ZM254.755 183.309L247.362 178.423V170.126L251.321 172.127L254.755 183.309Z" fill="#EEEEEE" stroke="#42A5F5" stroke-width="6" mask="url(#path-5-inside-1_214_22)"/>
</svg>
