<svg width="560" height="434" viewBox="0 0 560 434" fill="none" xmlns="http://www.w3.org/2000/svg">
<path d="M460.94 115.483C465.206 115.483 469.473 113.858 472.723 110.6L496.298 87.025C502.806 80.5167 502.806 69.9667 496.298 63.4583C489.79 56.95 479.231 56.95 472.731 63.4583L449.156 87.0333C442.648 93.5417 442.648 104.092 449.156 110.6C452.406 113.858 456.673 115.483 460.94 115.483ZM213.456 110.6C216.706 113.858 220.973 115.483 225.24 115.483C229.506 115.483 233.773 113.858 237.023 110.6C243.531 104.092 243.531 93.5417 237.023 87.0333L213.448 63.4583C206.948 56.95 196.381 56.95 189.881 63.4583C183.373 69.9667 183.373 80.5167 189.881 87.025L213.456 110.6ZM343.09 66.6667C352.29 66.6667 359.756 59.2 359.756 50V16.6667C359.756 7.46667 352.29 0 343.09 0C333.89 0 326.423 7.46667 326.423 16.6667V50C326.423 59.2 333.89 66.6667 343.09 66.6667ZM543.09 200H509.756C500.556 200 493.09 207.467 493.09 216.667C493.09 225.867 500.556 233.333 509.756 233.333H543.09C552.29 233.333 559.756 225.867 559.756 216.667C559.756 207.467 552.29 200 543.09 200ZM343.09 100C278.756 100 226.423 152.333 226.423 216.667C226.423 281 278.756 333.333 343.09 333.333C407.423 333.333 459.756 281 459.756 216.667C459.756 152.333 407.423 100 343.09 100ZM343.09 300C297.14 300 259.756 262.617 259.756 216.667C259.756 170.717 297.14 133.333 343.09 133.333C389.04 133.333 426.423 170.717 426.423 216.667C426.423 262.617 389.04 300 343.09 300Z" fill="#FDD835"/>
<path d="M392.207 253.471C387.976 253.471 382.927 254.119 378.121 254.98C360.647 196.128 305.946 155 242 155C178.045 155 123.353 196.128 105.879 254.98C101.073 254.119 96.0239 253.471 91.7931 253.471C41.1817 253.471 0 293.967 0 343.735C0 393.504 41.1817 434 91.7931 434H392.207C442.818 434 484 393.504 484 343.735C484 293.967 442.818 253.471 392.207 253.471Z" fill="#EAEAEA"/>
</svg>
