<svg width="484" height="400" viewBox="0 0 484 400" fill="none" xmlns="http://www.w3.org/2000/svg">
<path d="M391.667 100C387.442 100 382.4 100.658 377.6 101.533C360.15 41.7666 305.525 0 241.667 0C177.808 0 123.183 41.7666 105.742 101.533C100.933 100.658 95.8917 100 91.6667 100C41.125 100 0 141.125 0 191.667C0 242.208 41.125 283.333 91.6667 283.333C100.867 283.333 108.333 275.867 108.333 266.667C108.333 257.467 100.867 250 91.6667 250C59.5 250 33.3333 223.825 33.3333 191.667C33.3333 159.508 59.5 133.333 91.6667 133.333C93.975 133.333 97.6917 133.9 101.608 134.683V150C101.608 159.2 109.075 166.667 118.275 166.667C127.475 166.667 134.942 159.2 134.942 150V123.158C143.9 71.0583 188.592 33.3333 241.667 33.3333C294.742 33.3333 339.433 71.0583 348.392 123.158V150C348.392 159.2 355.858 166.667 365.058 166.667C374.258 166.667 381.725 159.2 381.725 150V134.683C385.642 133.9 389.358 133.333 391.667 133.333C423.825 133.333 450 159.508 450 191.667C450 223.825 423.825 250 391.667 250C382.467 250 375 257.467 375 266.667C375 275.867 382.467 283.333 391.667 283.333C442.208 283.333 483.333 242.208 483.333 191.667C483.333 141.125 442.208 100 391.667 100Z" fill="#FEFEFE"/>
<path d="M222.767 287.2C218.175 279.233 207.975 276.5 200 281.092C192.025 285.7 189.3 295.883 193.9 303.858L202.233 318.292C205.317 323.642 210.917 326.625 216.683 326.625C219.508 326.625 222.375 325.908 225 324.392C232.975 319.783 235.7 309.6 231.1 301.625L222.767 287.2Z" fill="#FEFEFE"/>
<path d="M181.1 215.033C176.5 207.067 166.3 204.333 158.333 208.925C150.358 213.533 147.633 223.717 152.233 231.692L160.567 246.125C163.65 251.475 169.25 254.458 175.017 254.458C177.842 254.458 180.708 253.742 183.333 252.233C191.308 247.625 194.033 237.442 189.433 229.458L181.1 215.033Z" fill="#FEFEFE"/>
<path d="M200 252.242C202.625 253.758 205.492 254.467 208.317 254.467C214.075 254.467 219.683 251.483 222.767 246.133L231.1 231.7C235.7 223.725 232.975 213.533 225 208.933C217.025 204.333 206.825 207.067 202.233 215.033L193.9 229.467C189.3 237.442 192.025 247.633 200 252.242Z" fill="#FEFEFE"/>
<path d="M183.333 281.092C175.358 276.492 165.167 279.225 160.567 287.2L152.233 301.633C147.633 309.608 150.358 319.8 158.333 324.4C160.958 325.917 163.825 326.633 166.65 326.633C172.408 326.633 178.017 323.65 181.1 318.3L189.433 303.867C194.033 295.892 191.308 285.7 183.333 281.092Z" fill="#FEFEFE"/>
<path d="M175 266.667C175 257.467 167.533 250 158.333 250H141.667C132.467 250 125 257.467 125 266.667C125 275.867 132.467 283.333 141.667 283.333H158.333C167.533 283.333 175 275.867 175 266.667Z" fill="#FEFEFE"/>
<path d="M258.333 266.667C258.333 257.467 250.867 250 241.667 250H225C215.8 250 208.333 257.467 208.333 266.667C208.333 275.867 215.8 283.333 225 283.333H241.667C250.867 283.333 258.333 275.867 258.333 266.667Z" fill="#FEFEFE"/>
<path d="M347.767 360.567C343.175 352.6 332.967 349.867 325 354.467C317.025 359.075 314.3 369.258 318.9 377.233L327.233 391.667C330.317 397.017 335.917 400 341.683 400C344.508 400 347.375 399.283 350 397.767C357.975 393.158 360.7 382.975 356.1 375L347.767 360.567Z" fill="#FEFEFE"/>
<path d="M306.1 288.392C301.5 280.425 291.308 277.692 283.333 282.292C275.358 286.9 272.633 297.083 277.233 305.058L285.567 319.492C288.65 324.842 294.25 327.825 300.017 327.825C302.842 327.825 305.708 327.108 308.333 325.6C316.308 320.992 319.033 310.808 314.433 302.825L306.1 288.392Z" fill="#FEFEFE"/>
<path d="M325 325.6C327.625 327.117 330.492 327.825 333.317 327.825C339.075 327.825 344.683 324.842 347.767 319.492L356.1 305.058C360.7 297.083 357.975 286.892 350 282.292C342.025 277.692 331.833 280.425 327.233 288.392L318.9 302.825C314.3 310.808 317.025 321 325 325.6Z" fill="#FEFEFE"/>
<path d="M308.333 354.458C300.358 349.858 290.167 352.592 285.567 360.558L277.233 374.992C272.633 382.967 275.358 393.158 283.333 397.758C285.958 399.283 288.825 400 291.65 400C297.408 400 303.017 397.017 306.1 391.667L314.433 377.233C319.033 369.258 316.308 359.067 308.333 354.458Z" fill="#FEFEFE"/>
<path d="M300 340.033C300 330.833 292.533 323.367 283.333 323.367H266.667C257.467 323.367 250 330.833 250 340.033C250 349.233 257.467 356.7 266.667 356.7H283.333C292.533 356.7 300 349.233 300 340.033Z" fill="#FEFEFE"/>
<path d="M366.667 323.367H350C340.8 323.367 333.333 330.833 333.333 340.033C333.333 349.233 340.8 356.7 350 356.7H366.667C375.867 356.7 383.333 349.233 383.333 340.033C383.333 330.833 375.867 323.367 366.667 323.367Z" fill="#FEFEFE"/>
</svg>
