<svg width="484" height="459" viewBox="0 0 484 459" fill="none" xmlns="http://www.w3.org/2000/svg">
<path d="M391.667 100C387.433 100 382.4 100.658 377.592 101.533C360.15 41.7667 305.525 0 241.667 0C177.8 0 123.175 41.7667 105.733 101.533C100.933 100.658 95.8917 100 91.6667 100C41.125 100 0 141.125 0 191.667C0 242.208 41.125 283.333 91.6667 283.333C100.867 283.333 108.333 275.867 108.333 266.667C108.333 257.467 100.867 250 91.6667 250C59.5083 250 33.3333 223.825 33.3333 191.667C33.3333 159.508 59.5083 133.333 91.6667 133.333C93.975 133.333 97.7 133.9 101.617 134.683V150C101.617 159.2 109.083 166.667 118.283 166.667C127.483 166.667 134.95 159.2 134.95 150V123.133C143.908 71.0417 188.592 33.3333 241.667 33.3333C294.767 33.3333 339.467 71.0833 348.4 123.225V150C348.4 159.2 355.867 166.667 365.067 166.667C374.267 166.667 381.733 159.2 381.733 150V134.683C385.642 133.9 389.358 133.333 391.667 133.333C423.825 133.333 450 159.508 450 191.667C450 223.825 423.825 250 391.667 250C382.458 250 375 257.467 375 266.667C375 275.867 382.458 283.333 391.667 283.333C442.208 283.333 483.333 242.208 483.333 191.667C483.333 141.125 442.208 100 391.667 100Z" fill="#42A5F5"/>
<path d="M171.666 256.666C165.383 248.283 151.292 248.283 145.008 256.666C138.35 265.525 116.667 296.041 116.667 316.666C116.667 341.2 133.8 358.333 158.333 358.333C182.867 358.333 200 341.2 200 316.666C200 296.041 178.308 265.525 171.666 256.666Z" fill="#42A5F5"/>
<path d="M311.667 256.666C305.017 265.525 283.333 296.041 283.333 316.666C283.333 341.2 300.467 358.333 325 358.333C349.533 358.333 366.667 341.2 366.667 316.666C366.667 296.041 344.975 265.525 338.333 256.666C332.05 248.283 317.95 248.283 311.667 256.666Z" fill="#42A5F5"/>
<path d="M228.333 356.667C221.683 365.525 200 396.042 200 416.667C200 441.2 217.133 458.334 241.667 458.334C266.2 458.334 283.333 441.2 283.333 416.667C283.333 396.042 261.642 365.525 255 356.667C248.717 348.284 234.617 348.284 228.333 356.667Z" fill="#42A5F5"/>
</svg>
