<svg width="431" height="312" viewBox="0 0 431 312" fill="none" xmlns="http://www.w3.org/2000/svg">
<path d="M303.879 74.4706C300.601 74.4706 296.69 74.9608 292.965 75.6125C279.427 31.1039 237.045 0 187.5 0C137.948 0 95.5733 31.1039 82.0345 75.6125C78.3103 74.9608 74.3987 74.4706 71.1207 74.4706C31.9073 74.4706 0 105.097 0 142.735C0 180.374 31.9073 211 71.1207 211H303.879C343.093 211 375 180.374 375 142.735C375 105.097 343.093 74.4706 303.879 74.4706Z" fill="#F5F5F5" fill-opacity="0.701961"/>
<path d="M354.389 158.333C350.868 158.333 346.667 158.882 342.667 159.611C328.125 109.806 282.604 75 229.389 75C176.167 75 130.653 109.806 116.111 159.611C112.111 158.882 107.91 158.333 104.389 158.333C62.2708 158.333 28 192.604 28 234.722C28 276.84 62.2708 311.111 104.389 311.111H354.389C396.507 311.111 430.778 276.84 430.778 234.722C430.778 192.604 396.507 158.333 354.389 158.333Z" fill="#F5F5F5"/>
</svg>
