<svg width="408" height="240" viewBox="0 0 408 240" fill="none" xmlns="http://www.w3.org/2000/svg">
<path d="M329 85.4444C325.479 85.4444 321.278 85.993 317.278 86.7222C302.736 36.9166 257.215 2.11108 204 2.11108C150.778 2.11108 105.264 36.9166 90.7222 86.7222C86.7222 85.993 82.5208 85.4444 79 85.4444C36.8819 85.4444 2.61108 119.715 2.61108 161.833C2.61108 203.951 36.8819 238.222 79 238.222H329C371.118 238.222 405.389 203.951 405.389 161.833C405.389 119.715 371.118 85.4444 329 85.4444ZM329 210.444H79C52.1944 210.444 30.3889 188.632 30.3889 161.833C30.3889 135.035 52.1944 113.222 79 113.222C80.9236 113.222 84.0208 113.694 87.2916 114.347V127.111C87.2916 134.778 93.5139 141 101.181 141C108.847 141 115.069 134.778 115.069 127.111V104.708C122.542 61.3055 159.778 29.8889 204 29.8889C248.243 29.8889 285.493 61.3403 292.944 104.778V127.111C292.944 134.778 299.167 141 306.833 141C314.507 141 320.722 134.778 320.722 127.111V114.354C323.986 113.701 327.097 113.222 329 113.222C355.799 113.222 377.611 135.035 377.611 161.833C377.611 188.632 355.799 210.444 329 210.444Z" fill="#F5F5F5" fill-opacity="0.701961" stroke="#F5F5F5" stroke-opacity="0.701961" stroke-width="3.33333"/>
</svg>
