<svg width="534" height="337" viewBox="0 0 534 337" fill="none" xmlns="http://www.w3.org/2000/svg">
<path d="M191.667 33.3333H291.667C300.867 33.3333 308.333 25.8667 308.333 16.6667C308.333 7.46667 300.867 0 291.667 0H191.667C182.458 0 175 7.46667 175 16.6667C175 25.8667 182.458 33.3333 191.667 33.3333Z" fill="#F5F5F5" fill-opacity="0.5"/>
<path d="M91.6667 83.3333H291.667C300.867 83.3333 308.333 75.8667 308.333 66.6667C308.333 57.4667 300.867 50 291.667 50H91.6667C82.4583 50 75 57.4667 75 66.6667C75 75.8667 82.4583 83.3333 91.6667 83.3333Z" fill="#F5F5F5" fill-opacity="0.5"/>
<path d="M41.6584 133.333H241.667C250.867 133.333 258.333 125.867 258.333 116.667C258.333 107.467 250.867 100 241.667 100H41.6584C32.45 100 24.9917 107.467 24.9917 116.667C24.9917 125.867 32.45 133.333 41.6584 133.333Z" fill="#F5F5F5" fill-opacity="0.5"/>
<path d="M533.333 166.667C533.333 157.467 525.867 150 516.667 150H16.6667C7.45833 150 0 157.467 0 166.667C0 175.867 7.45833 183.333 16.6667 183.333H516.667C525.867 183.333 533.333 175.867 533.333 166.667Z" fill="#F5F5F5" fill-opacity="0.5"/>
<path d="M516.667 200H41.6667C32.4583 200 25 207.467 25 216.667C25 225.867 32.4583 233.333 41.6667 233.333H516.667C525.867 233.333 533.333 225.867 533.333 216.667C533.333 207.467 525.867 200 516.667 200Z" fill="#F5F5F5" fill-opacity="0.5"/>
<path d="M191.667 250L91.6667 249.992C82.4583 249.992 75 257.458 75 266.658C75 275.858 82.4583 283.325 91.6667 283.325L191.667 283.333C200.867 283.333 208.333 275.867 208.333 266.667C208.333 257.467 200.867 250 191.667 250Z" fill="#F5F5F5" fill-opacity="0.5"/>
<path d="M350 83.3333H416.667C425.867 83.3333 433.333 75.8667 433.333 66.6667C433.333 57.4667 425.867 50 416.667 50H350C340.792 50 333.333 57.4667 333.333 66.6667C333.333 75.8667 340.792 83.3333 350 83.3333Z" fill="#F5F5F5" fill-opacity="0.5"/>
<path d="M275 116.667C275 125.867 282.458 133.333 291.667 133.333H466.667C475.867 133.333 483.333 125.867 483.333 116.667C483.333 107.467 475.867 100 466.667 100H291.667C282.458 100 275 107.467 275 116.667Z" fill="#F5F5F5" fill-opacity="0.5"/>
<path d="M466.667 249.992L241.667 250C232.458 250 225 257.467 225 266.667C225 275.867 232.458 283.333 241.667 283.333L466.667 283.325C475.867 283.325 483.333 275.858 483.333 266.658C483.333 257.458 475.867 249.992 466.667 249.992Z" fill="#F5F5F5" fill-opacity="0.5"/>
<mask id="path-10-inside-1_207_19" fill="white">
<path d="M514.238 272.612L490.926 260.282L504.192 257.027C508.196 256.043 510.571 252.272 509.498 248.608C508.429 244.944 504.304 242.747 500.308 243.748L472.545 250.561L451.932 239.66L476.448 233.641C479.544 232.882 481.773 230.407 481.995 227.474C482.216 224.546 480.381 221.813 477.428 220.672L455.801 212.298L472.549 203.439L500.304 210.249C500.957 210.411 501.61 210.486 502.252 210.486C505.569 210.486 508.597 208.458 509.498 205.388C510.571 201.721 508.192 197.95 504.192 196.97L490.937 193.718L514.245 181.391C517.837 179.49 519.064 175.29 516.996 172C514.917 168.71 510.327 167.583 506.74 169.484L483.436 181.807L486.982 169.673C488.055 166.005 485.676 162.234 481.676 161.254C477.645 160.258 473.559 162.451 472.485 166.115L465.055 191.532L448.307 200.39L451.2 179.054C451.575 176.311 450.119 173.633 447.507 172.251C444.899 170.876 441.631 171.058 439.229 172.722L420.51 185.685V167.975L440.82 149.371C443.751 146.686 443.751 142.334 440.82 139.65C437.889 136.965 433.138 136.965 430.207 139.65L420.51 148.532V123.875C420.51 120.08 417.148 117 413.005 117C408.858 117 405.5 120.08 405.5 123.875V148.536L395.791 139.639C392.861 136.955 388.11 136.955 385.179 139.639C382.248 142.321 382.248 146.676 385.179 149.361L405.5 167.978V185.681L386.77 172.698C384.211 170.924 380.709 170.838 378.052 172.478C375.392 174.117 374.161 177.125 374.994 179.961L381.569 202.442L360.955 191.542L353.514 166.118C352.444 162.454 348.324 160.264 344.323 161.258C340.319 162.241 337.944 166.012 339.017 169.676L342.567 181.814L319.259 169.487C315.66 167.586 311.078 168.714 309.007 172.003C306.935 175.293 308.162 179.497 311.754 181.395L335.058 193.718L321.811 196.97C317.807 197.953 315.431 201.724 316.505 205.388C317.401 208.462 320.434 210.486 323.751 210.486C324.393 210.483 325.049 210.411 325.699 210.249L353.446 203.439L374.056 214.34L349.555 220.355C346.459 221.115 344.229 223.59 344.012 226.522C343.79 229.451 345.625 232.184 348.579 233.325L370.194 241.699L353.442 250.557L325.706 243.748C321.71 242.754 317.585 244.944 316.516 248.608C315.443 252.272 317.818 256.043 321.822 257.027L335.058 260.278L311.761 272.598C308.17 274.499 306.943 278.7 309.014 281.99C310.406 284.197 312.928 285.427 315.521 285.427C316.794 285.427 318.088 285.132 319.267 284.506L342.582 272.176L339.028 284.327C337.955 287.992 340.33 291.762 344.335 292.746C344.984 292.907 345.64 292.983 346.278 292.983C349.592 292.983 352.624 290.955 353.525 287.885L360.963 262.454L377.703 253.603L374.81 274.943C374.435 277.682 375.891 280.36 378.503 281.746C381.115 283.121 384.38 282.938 386.781 281.275L405.496 268.312V286.025L385.175 304.639C382.244 307.324 382.244 311.676 385.175 314.361C388.106 317.045 392.857 317.045 395.788 314.361L405.496 305.468V330.125C405.496 333.92 408.855 337 413.001 337C417.144 337 420.507 333.92 420.507 330.125V305.475L430.207 314.361C431.675 315.705 433.592 316.375 435.514 316.375C437.435 316.375 439.353 315.705 440.82 314.361C443.751 311.676 443.751 307.324 440.82 304.639L420.507 286.032V268.322L439.248 281.306C440.58 282.23 442.175 282.698 443.773 282.698C445.237 282.698 446.697 282.309 447.965 281.526C450.626 279.882 451.853 276.875 451.02 274.039L444.438 251.575L465.055 262.478L472.481 287.888C473.378 290.962 476.411 292.986 479.728 292.986C480.37 292.986 481.023 292.911 481.676 292.749C485.676 291.769 488.055 287.998 486.982 284.331L483.439 272.203L506.736 284.523C507.922 285.149 509.209 285.444 510.481 285.444C513.074 285.444 515.596 284.214 516.988 282.007C519.06 278.714 517.833 274.51 514.238 272.612ZM451.455 225.539L433.547 229.936L427.997 227L439.507 220.912L451.455 225.539ZM434.11 193.491L432.005 209.001L420.503 215.086V202.92L434.11 193.491ZM395.138 195.75L405.492 202.924V215.099L399.938 212.164L395.138 195.75ZM374.525 228.461L392.422 224.068L397.968 227L386.466 233.088L374.525 228.461ZM391.874 260.505L393.975 244.992L405.496 238.901V251.073L391.874 260.505ZM430.857 258.254L420.507 251.087V238.918L426.049 241.853L430.857 258.254Z"/>
</mask>
<path d="M514.238 272.612L490.926 260.282L504.192 257.027C508.196 256.043 510.571 252.272 509.498 248.608C508.429 244.944 504.304 242.747 500.308 243.748L472.545 250.561L451.932 239.66L476.448 233.641C479.544 232.882 481.773 230.407 481.995 227.474C482.216 224.546 480.381 221.813 477.428 220.672L455.801 212.298L472.549 203.439L500.304 210.249C500.957 210.411 501.61 210.486 502.252 210.486C505.569 210.486 508.597 208.458 509.498 205.388C510.571 201.721 508.192 197.95 504.192 196.97L490.937 193.718L514.245 181.391C517.837 179.49 519.064 175.29 516.996 172C514.917 168.71 510.327 167.583 506.74 169.484L483.436 181.807L486.982 169.673C488.055 166.005 485.676 162.234 481.676 161.254C477.645 160.258 473.559 162.451 472.485 166.115L465.055 191.532L448.307 200.39L451.2 179.054C451.575 176.311 450.119 173.633 447.507 172.251C444.899 170.876 441.631 171.058 439.229 172.722L420.51 185.685V167.975L440.82 149.371C443.751 146.686 443.751 142.334 440.82 139.65C437.889 136.965 433.138 136.965 430.207 139.65L420.51 148.532V123.875C420.51 120.08 417.148 117 413.005 117C408.858 117 405.5 120.08 405.5 123.875V148.536L395.791 139.639C392.861 136.955 388.11 136.955 385.179 139.639C382.248 142.321 382.248 146.676 385.179 149.361L405.5 167.978V185.681L386.77 172.698C384.211 170.924 380.709 170.838 378.052 172.478C375.392 174.117 374.161 177.125 374.994 179.961L381.569 202.442L360.955 191.542L353.514 166.118C352.444 162.454 348.324 160.264 344.323 161.258C340.319 162.241 337.944 166.012 339.017 169.676L342.567 181.814L319.259 169.487C315.66 167.586 311.078 168.714 309.007 172.003C306.935 175.293 308.162 179.497 311.754 181.395L335.058 193.718L321.811 196.97C317.807 197.953 315.431 201.724 316.505 205.388C317.401 208.462 320.434 210.486 323.751 210.486C324.393 210.483 325.049 210.411 325.699 210.249L353.446 203.439L374.056 214.34L349.555 220.355C346.459 221.115 344.229 223.59 344.012 226.522C343.79 229.451 345.625 232.184 348.579 233.325L370.194 241.699L353.442 250.557L325.706 243.748C321.71 242.754 317.585 244.944 316.516 248.608C315.443 252.272 317.818 256.043 321.822 257.027L335.058 260.278L311.761 272.598C308.17 274.499 306.943 278.7 309.014 281.99C310.406 284.197 312.928 285.427 315.521 285.427C316.794 285.427 318.088 285.132 319.267 284.506L342.582 272.176L339.028 284.327C337.955 287.992 340.33 291.762 344.335 292.746C344.984 292.907 345.64 292.983 346.278 292.983C349.592 292.983 352.624 290.955 353.525 287.885L360.963 262.454L377.703 253.603L374.81 274.943C374.435 277.682 375.891 280.36 378.503 281.746C381.115 283.121 384.38 282.938 386.781 281.275L405.496 268.312V286.025L385.175 304.639C382.244 307.324 382.244 311.676 385.175 314.361C388.106 317.045 392.857 317.045 395.788 314.361L405.496 305.468V330.125C405.496 333.92 408.855 337 413.001 337C417.144 337 420.507 333.92 420.507 330.125V305.475L430.207 314.361C431.675 315.705 433.592 316.375 435.514 316.375C437.435 316.375 439.353 315.705 440.82 314.361C443.751 311.676 443.751 307.324 440.82 304.639L420.507 286.032V268.322L439.248 281.306C440.58 282.23 442.175 282.698 443.773 282.698C445.237 282.698 446.697 282.309 447.965 281.526C450.626 279.882 451.853 276.875 451.02 274.039L444.438 251.575L465.055 262.478L472.481 287.888C473.378 290.962 476.411 292.986 479.728 292.986C480.37 292.986 481.023 292.911 481.676 292.749C485.676 291.769 488.055 287.998 486.982 284.331L483.439 272.203L506.736 284.523C507.922 285.149 509.209 285.444 510.481 285.444C513.074 285.444 515.596 284.214 516.988 282.007C519.06 278.714 517.833 274.51 514.238 272.612ZM451.455 225.539L433.547 229.936L427.997 227L439.507 220.912L451.455 225.539ZM434.11 193.491L432.005 209.001L420.503 215.086V202.92L434.11 193.491ZM395.138 195.75L405.492 202.924V215.099L399.938 212.164L395.138 195.75ZM374.525 228.461L392.422 224.068L397.968 227L386.466 233.088L374.525 228.461ZM391.874 260.505L393.975 244.992L405.496 238.901V251.073L391.874 260.505ZM430.857 258.254L420.507 251.087V238.918L426.049 241.853L430.857 258.254Z" fill="#EEEEEE" stroke="white" stroke-width="2" mask="url(#path-10-inside-1_207_19)"/>
</svg>
