<svg width="484" height="417" viewBox="0 0 484 417" fill="none" xmlns="http://www.w3.org/2000/svg">
<path d="M258.333 266.667V166.667C258.333 157.467 250.867 150 241.667 150C232.467 150 225 157.467 225 166.667V266.667C225 275.867 232.467 283.333 241.667 283.333C250.875 283.333 258.333 275.867 258.333 266.667Z" fill="#006BB9"/>
<path d="M183.333 316.667V216.667C183.333 207.467 175.867 200 166.667 200C157.467 200 150 207.467 150 216.667V316.667C150 325.867 157.467 333.333 166.667 333.333C175.875 333.333 183.333 325.867 183.333 316.667Z" fill="#006BB9"/>
<path d="M333.333 316.667V216.667C333.333 207.467 325.867 200 316.667 200C307.467 200 300 207.467 300 216.667V316.667C300 325.867 307.467 333.333 316.667 333.333C325.875 333.333 333.333 325.867 333.333 316.667Z" fill="#006BB9"/>
<path d="M175 366.667H158.333C149.133 366.667 141.667 374.134 141.667 383.334V400C141.667 409.2 149.133 416.667 158.333 416.667H175C184.2 416.667 191.667 409.2 191.667 400V383.334C191.667 374.134 184.208 366.667 175 366.667Z" fill="#006BB9"/>
<path d="M250 316.667H233.333C224.133 316.667 216.667 324.134 216.667 333.334V350C216.667 359.2 224.133 366.667 233.333 366.667H250C259.2 366.667 266.667 359.2 266.667 350V333.334C266.667 324.134 259.208 316.667 250 316.667Z" fill="#006BB9"/>
<path d="M325 366.667H308.333C299.133 366.667 291.667 374.134 291.667 383.334V400C291.667 409.2 299.133 416.667 308.333 416.667H325C334.2 416.667 341.667 409.2 341.667 400V383.334C341.667 374.134 334.208 366.667 325 366.667Z" fill="#006BB9"/>
<path d="M391.667 100C387.433 100 382.4 100.658 377.592 101.533C360.15 41.7666 305.533 0 241.667 0C177.8 0 123.183 41.7666 105.733 101.533C100.942 100.658 95.9 100 91.6667 100C41.125 100 0 141.125 0 191.667C0 242.208 41.125 283.333 91.6667 283.333H108.333C117.533 283.333 125 275.867 125 266.667C125 257.467 117.533 250 108.333 250H91.6667C59.5 250 33.3333 223.825 33.3333 191.667C33.3333 159.508 59.5 133.333 91.6667 133.333C93.975 133.333 97.6917 133.9 101.608 134.683V150C101.608 159.2 109.075 166.667 118.275 166.667C127.475 166.667 134.942 159.2 134.942 150V123.158C143.9 71.0583 188.592 33.3333 241.667 33.3333C294.758 33.3333 339.45 71.075 348.392 123.192V150C348.392 159.2 355.858 166.667 365.058 166.667C374.258 166.667 381.725 159.2 381.725 150V134.692C385.658 133.908 389.383 133.333 391.667 133.333C423.825 133.333 450 159.508 450 191.667C450 223.825 423.825 250 391.667 250H375C365.8 250 358.333 257.467 358.333 266.667C358.333 275.867 365.8 283.333 375 283.333H391.667C442.208 283.333 483.333 242.208 483.333 191.667C483.333 141.125 442.217 100 391.667 100Z" fill="#006BB9"/>
</svg>
