<svg width="484" height="339" viewBox="0 0 484 339" fill="none" xmlns="http://www.w3.org/2000/svg">
<path d="M391.667 100C387.442 100 382.4 100.658 377.6 101.533C360.15 41.7666 305.525 0 241.667 0C177.808 0 123.183 41.7666 105.742 101.533C100.933 100.658 95.8917 100 91.6667 100C41.125 100 0 141.125 0 191.667C0 242.208 41.125 283.333 91.6667 283.333C100.867 283.333 108.333 275.867 108.333 266.667C108.333 257.467 100.867 250 91.6667 250C59.5 250 33.3333 223.825 33.3333 191.667C33.3333 159.508 59.5 133.333 91.6667 133.333C93.975 133.333 97.6917 133.9 101.608 134.683V150C101.608 159.2 109.075 166.667 118.275 166.667C127.475 166.667 134.942 159.2 134.942 150V123.158C143.9 71.0583 188.592 33.3333 241.667 33.3333C294.742 33.3333 339.433 71.0583 348.392 123.158V150C348.392 159.2 355.858 166.667 365.058 166.667C374.258 166.667 381.725 159.2 381.725 150V134.683C385.642 133.9 389.358 133.333 391.667 133.333C423.825 133.333 450 159.508 450 191.667C450 223.825 423.825 250 391.667 250C382.467 250 375 257.467 375 266.667C375 275.867 382.467 283.333 391.667 283.333C442.208 283.333 483.333 242.208 483.333 191.667C483.333 141.125 442.208 100 391.667 100Z" fill="#FEFEFE"/>
<path d="M222.767 287.2C218.175 279.233 207.975 276.5 200 281.092C192.025 285.7 189.3 295.883 193.9 303.858L202.233 318.292C205.317 323.642 210.917 326.625 216.683 326.625C219.508 326.625 222.375 325.908 225 324.392C232.975 319.783 235.7 309.6 231.1 301.625L222.767 287.2Z" fill="#FEFEFE"/>
<path d="M181.1 215.033C176.5 207.067 166.3 204.333 158.333 208.925C150.358 213.533 147.633 223.717 152.233 231.692L160.567 246.125C163.65 251.475 169.25 254.458 175.017 254.458C177.842 254.458 180.708 253.742 183.333 252.233C191.308 247.625 194.033 237.442 189.433 229.458L181.1 215.033Z" fill="#FEFEFE"/>
<path d="M200 252.242C202.625 253.758 205.492 254.467 208.317 254.467C214.075 254.467 219.683 251.483 222.767 246.133L231.1 231.7C235.7 223.725 232.975 213.533 225 208.933C217.025 204.333 206.825 207.067 202.233 215.033L193.9 229.467C189.3 237.442 192.025 247.633 200 252.242Z" fill="#FEFEFE"/>
<path d="M183.333 281.092C175.358 276.492 165.167 279.225 160.567 287.2L152.233 301.633C147.633 309.608 150.358 319.8 158.333 324.4C160.958 325.917 163.825 326.633 166.65 326.633C172.408 326.633 178.017 323.65 181.1 318.3L189.433 303.867C194.033 295.892 191.308 285.7 183.333 281.092Z" fill="#FEFEFE"/>
<path d="M175 266.667C175 257.467 167.533 250 158.333 250H141.667C132.467 250 125 257.467 125 266.667C125 275.867 132.467 283.333 141.667 283.333H158.333C167.533 283.333 175 275.867 175 266.667Z" fill="#FEFEFE"/>
<path d="M258.333 266.667C258.333 257.467 250.867 250 241.667 250H225C215.8 250 208.333 257.467 208.333 266.667C208.333 275.867 215.8 283.333 225 283.333H241.667C250.867 283.333 258.333 275.867 258.333 266.667Z" fill="#FEFEFE"/>
<path d="M333.66 315.305C330.905 310.525 324.78 308.885 320 311.645C315.215 314.41 313.58 320.52 316.34 325.305L321.34 333.965C323.19 337.175 326.55 338.965 330.01 338.965C331.705 338.965 333.425 338.535 335 337.625C339.785 334.86 341.42 328.75 338.66 323.965L333.66 315.305Z" fill="#FEFEFE"/>
<path d="M308.66 272C305.9 267.22 299.785 265.58 295 268.34C290.215 271.105 288.58 277.215 291.34 282L296.34 290.66C298.19 293.87 301.55 295.66 305.01 295.66C306.705 295.66 308.425 295.23 310 294.325C314.785 291.56 316.42 285.45 313.66 280.66L308.66 272Z" fill="#FEFEFE"/>
<path d="M320 294.325C321.575 295.235 323.295 295.66 324.99 295.66C328.445 295.66 331.81 293.87 333.66 290.66L338.66 282C341.42 277.215 339.785 271.1 335 268.34C330.215 265.58 324.1 267.22 321.34 272L316.34 280.66C313.58 285.45 315.215 291.565 320 294.325Z" fill="#FEFEFE"/>
<path d="M310 311.64C305.215 308.88 299.1 310.52 296.34 315.3L291.34 323.96C288.58 328.745 290.215 334.86 295 337.62C296.575 338.535 298.295 338.965 299.99 338.965C303.445 338.965 306.81 337.175 308.66 333.965L313.66 325.305C316.42 320.52 314.785 314.405 310 311.64Z" fill="#FEFEFE"/>
<path d="M305 302.985C305 297.465 300.52 292.985 295 292.985H285C279.48 292.985 275 297.465 275 302.985C275 308.505 279.48 312.985 285 312.985H295C300.52 312.985 305 308.505 305 302.985Z" fill="#FEFEFE"/>
<path d="M345 292.985H335C329.48 292.985 325 297.465 325 302.985C325 308.505 329.48 312.985 335 312.985H345C350.52 312.985 355 308.505 355 302.985C355 297.465 350.52 292.985 345 292.985Z" fill="#FEFEFE"/>
</svg>
