<svg width="484" height="478" viewBox="0 0 484 478" fill="none" xmlns="http://www.w3.org/2000/svg">
<path d="M210.925 340.44L204.265 337.077L208.055 336.189C209.199 335.921 209.878 334.892 209.571 333.893C209.265 332.894 208.087 332.295 206.945 332.568L199.013 334.426L193.123 331.453L200.128 329.811C201.013 329.604 201.649 328.929 201.713 328.129C201.776 327.331 201.252 326.585 200.408 326.274L194.229 323.99L199.014 321.574L206.944 323.432C207.131 323.476 207.317 323.496 207.5 323.496C208.448 323.496 209.314 322.943 209.571 322.106C209.878 321.106 209.198 320.077 208.055 319.81L204.268 318.923L210.927 315.561C211.953 315.043 212.304 313.897 211.713 313C211.119 312.103 209.808 311.795 208.783 312.314L202.124 315.675L203.138 312.365C203.444 311.365 202.765 310.337 201.622 310.069C200.47 309.798 199.302 310.396 198.996 311.395L196.873 318.327L192.088 320.743L192.914 314.924C193.021 314.176 192.605 313.445 191.859 313.068C191.114 312.693 190.18 312.743 189.494 313.197L184.146 316.732V311.902L189.949 306.828C190.786 306.096 190.786 304.909 189.949 304.177C189.111 303.445 187.754 303.445 186.916 304.177L184.146 306.6V299.875C184.146 298.84 183.185 298 182.001 298C180.817 298 179.857 298.84 179.857 299.875V306.601L177.083 304.174C176.246 303.442 174.888 303.442 174.051 304.174C173.214 304.906 173.214 306.093 174.051 306.826L179.857 311.903V316.731L174.506 313.19C173.774 312.707 172.774 312.683 172.015 313.13C171.255 313.578 170.903 314.398 171.141 315.171L173.02 321.302L167.13 318.33L165.004 311.396C164.698 310.397 163.521 309.799 162.378 310.07C161.234 310.338 160.555 311.367 160.862 312.366L161.876 315.677L155.217 312.315C154.189 311.796 152.879 312.104 152.288 313.001C151.696 313.898 152.046 315.045 153.072 315.562L159.731 318.923L155.946 319.81C154.802 320.078 154.123 321.107 154.43 322.106C154.686 322.944 155.552 323.496 156.5 323.496C156.684 323.495 156.871 323.476 157.057 323.432L164.985 321.574L170.873 324.547L163.873 326.188C162.988 326.395 162.351 327.07 162.289 327.87C162.226 328.668 162.75 329.414 163.594 329.725L169.77 332.009L164.984 334.425L157.059 332.568C155.917 332.297 154.739 332.894 154.433 333.893C154.126 334.892 154.805 335.921 155.949 336.189L159.731 337.076L153.075 340.436C152.049 340.954 151.698 342.1 152.29 342.997C152.688 343.599 153.408 343.935 154.149 343.935C154.512 343.935 154.882 343.854 155.219 343.683L161.881 340.321L160.865 343.635C160.559 344.634 161.237 345.663 162.381 345.931C162.567 345.975 162.754 345.995 162.937 345.995C163.883 345.995 164.75 345.442 165.007 344.605L167.132 337.669L171.915 335.255L171.089 341.075C170.981 341.823 171.397 342.553 172.144 342.931C172.89 343.306 173.823 343.256 174.509 342.802L179.856 339.267V344.098L174.05 349.174C173.213 349.907 173.213 351.093 174.05 351.826C174.887 352.558 176.245 352.558 177.082 351.826L179.856 349.4V356.125C179.856 357.16 180.816 358 182 358C183.184 358 184.145 357.16 184.145 356.125V349.402L186.916 351.826C187.336 352.192 187.884 352.375 188.432 352.375C188.981 352.375 189.529 352.192 189.949 351.826C190.786 351.093 190.786 349.907 189.949 349.174L184.145 344.1V339.27L189.499 342.811C189.88 343.063 190.336 343.19 190.792 343.19C191.211 343.19 191.628 343.084 191.99 342.871C192.75 342.422 193.101 341.602 192.863 340.829L190.982 334.702L196.873 337.676L198.995 344.606C199.251 345.444 200.117 345.996 201.065 345.996C201.248 345.996 201.435 345.976 201.622 345.932C202.765 345.664 203.444 344.636 203.138 343.636L202.126 340.328L208.782 343.688C209.121 343.859 209.488 343.939 209.852 343.939C210.593 343.939 211.313 343.604 211.711 343.002C212.303 342.104 211.952 340.957 210.925 340.44ZM192.987 327.602L187.871 328.801L186.285 328L189.573 326.34L192.987 327.602ZM188.031 318.861L187.43 323.091L184.144 324.751V321.433L188.031 318.861ZM176.897 319.477L179.855 321.434V324.754L178.268 323.954L176.897 319.477ZM171.007 328.398L176.12 327.2L177.705 328L174.419 329.66L171.007 328.398ZM175.964 337.138L176.564 332.907L179.856 331.246V334.565L175.964 337.138ZM187.102 336.524L184.145 334.569V331.25L185.728 332.051L187.102 336.524Z" fill="#EEEEEE"/>
<path d="M330.925 340.44L324.265 337.077L328.055 336.189C329.199 335.921 329.878 334.892 329.571 333.893C329.265 332.894 328.087 332.295 326.945 332.568L319.013 334.426L313.123 331.453L320.128 329.811C321.013 329.604 321.649 328.929 321.713 328.129C321.776 327.331 321.252 326.585 320.408 326.274L314.229 323.99L319.014 321.574L326.944 323.432C327.131 323.476 327.317 323.496 327.5 323.496C328.448 323.496 329.314 322.943 329.571 322.106C329.878 321.106 329.198 320.077 328.055 319.81L324.268 318.923L330.927 315.561C331.953 315.043 332.304 313.897 331.713 313C331.119 312.103 329.808 311.795 328.783 312.314L322.124 315.675L323.138 312.365C323.444 311.365 322.765 310.337 321.622 310.069C320.47 309.798 319.302 310.396 318.996 311.395L316.873 318.327L312.088 320.743L312.914 314.924C313.021 314.176 312.605 313.445 311.859 313.068C311.114 312.693 310.18 312.743 309.494 313.197L304.146 316.732V311.902L309.949 306.828C310.786 306.096 310.786 304.909 309.949 304.177C309.111 303.445 307.754 303.445 306.916 304.177L304.146 306.6V299.875C304.146 298.84 303.185 298 302.001 298C300.817 298 299.857 298.84 299.857 299.875V306.601L297.083 304.174C296.246 303.442 294.888 303.442 294.051 304.174C293.214 304.906 293.214 306.093 294.051 306.826L299.857 311.903V316.731L294.506 313.19C293.774 312.707 292.774 312.683 292.015 313.13C291.255 313.578 290.903 314.398 291.141 315.171L293.02 321.302L287.13 318.33L285.004 311.396C284.698 310.397 283.521 309.799 282.378 310.07C281.234 310.338 280.555 311.367 280.862 312.366L281.876 315.677L275.217 312.315C274.189 311.796 272.879 312.104 272.288 313.001C271.696 313.898 272.046 315.045 273.072 315.562L279.731 318.923L275.946 319.81C274.802 320.078 274.123 321.107 274.43 322.106C274.686 322.944 275.552 323.496 276.5 323.496C276.684 323.495 276.871 323.476 277.057 323.432L284.985 321.574L290.873 324.547L283.873 326.188C282.988 326.395 282.351 327.07 282.289 327.87C282.226 328.668 282.75 329.414 283.594 329.725L289.77 332.009L284.984 334.425L277.059 332.568C275.917 332.297 274.739 332.894 274.433 333.893C274.126 334.892 274.805 335.921 275.949 336.189L279.731 337.076L273.075 340.436C272.049 340.954 271.698 342.1 272.29 342.997C272.688 343.599 273.408 343.935 274.149 343.935C274.512 343.935 274.882 343.854 275.219 343.683L281.881 340.321L280.865 343.635C280.559 344.634 281.237 345.663 282.381 345.931C282.567 345.975 282.754 345.995 282.937 345.995C283.883 345.995 284.75 345.442 285.007 344.605L287.132 337.669L291.915 335.255L291.089 341.075C290.981 341.822 291.397 342.553 292.144 342.931C292.89 343.306 293.823 343.256 294.509 342.802L299.856 339.267V344.098L294.05 349.174C293.213 349.907 293.213 351.093 294.05 351.826C294.887 352.558 296.245 352.558 297.082 351.826L299.856 349.4V356.125C299.856 357.16 300.816 358 302 358C303.184 358 304.145 357.16 304.145 356.125V349.402L306.916 351.826C307.336 352.192 307.884 352.375 308.432 352.375C308.981 352.375 309.529 352.192 309.949 351.826C310.786 351.093 310.786 349.907 309.949 349.174L304.145 344.1V339.27L309.499 342.811C309.88 343.063 310.336 343.19 310.792 343.19C311.211 343.19 311.628 343.084 311.99 342.871C312.75 342.422 313.101 341.602 312.863 340.829L310.982 334.702L316.873 337.676L318.995 344.606C319.251 345.444 320.117 345.996 321.065 345.996C321.248 345.996 321.435 345.976 321.622 345.932C322.765 345.664 323.444 344.636 323.138 343.636L322.126 340.328L328.782 343.688C329.121 343.859 329.488 343.939 329.852 343.939C330.593 343.939 331.313 343.604 331.711 343.002C332.303 342.104 331.952 340.957 330.925 340.44ZM312.987 327.602L307.871 328.801L306.285 328L309.573 326.34L312.987 327.602ZM308.031 318.861L307.43 323.091L304.144 324.751V321.433L308.031 318.861ZM296.897 319.477L299.855 321.434V324.754L298.268 323.954L296.897 319.477ZM291.007 328.398L296.12 327.2L297.705 328L294.419 329.66L291.007 328.398ZM295.964 337.138L296.564 332.907L299.856 331.246V334.565L295.964 337.138ZM307.102 336.524L304.145 334.569V331.25L305.728 332.051L307.102 336.524Z" fill="#EEEEEE"/>
<path d="M270.925 400.44L264.265 397.077L268.055 396.189C269.199 395.921 269.878 394.892 269.571 393.893C269.265 392.894 268.087 392.295 266.945 392.568L259.013 394.426L253.123 391.453L260.128 389.811C261.013 389.604 261.649 388.929 261.713 388.129C261.776 387.331 261.252 386.585 260.408 386.274L254.229 383.99L259.014 381.574L266.944 383.432C267.131 383.476 267.317 383.496 267.5 383.496C268.448 383.496 269.314 382.943 269.571 382.106C269.878 381.106 269.198 380.077 268.055 379.81L264.268 378.923L270.927 375.561C271.953 375.043 272.304 373.897 271.713 373C271.119 372.103 269.808 371.795 268.783 372.314L262.124 375.675L263.138 372.365C263.444 371.365 262.765 370.337 261.622 370.069C260.47 369.798 259.302 370.396 258.996 371.395L256.873 378.327L252.088 380.743L252.914 374.924C253.021 374.176 252.605 373.445 251.859 373.068C251.114 372.693 250.18 372.743 249.494 373.197L244.146 376.732V371.902L249.949 366.828C250.786 366.096 250.786 364.909 249.949 364.177C249.111 363.445 247.754 363.445 246.916 364.177L244.146 366.6V359.875C244.146 358.84 243.185 358 242.001 358C240.817 358 239.857 358.84 239.857 359.875V366.601L237.083 364.174C236.246 363.442 234.888 363.442 234.051 364.174C233.214 364.906 233.214 366.093 234.051 366.826L239.857 371.903V376.731L234.506 373.19C233.774 372.707 232.774 372.683 232.015 373.13C231.255 373.578 230.903 374.398 231.141 375.171L233.02 381.302L227.13 378.33L225.004 371.396C224.698 370.397 223.521 369.799 222.378 370.07C221.234 370.338 220.555 371.367 220.862 372.366L221.876 375.677L215.217 372.315C214.189 371.796 212.879 372.104 212.288 373.001C211.696 373.898 212.046 375.045 213.072 375.562L219.731 378.923L215.946 379.81C214.802 380.078 214.123 381.107 214.43 382.106C214.686 382.944 215.552 383.496 216.5 383.496C216.684 383.495 216.871 383.476 217.057 383.432L224.985 381.574L230.873 384.547L223.873 386.188C222.988 386.395 222.351 387.07 222.289 387.87C222.226 388.668 222.75 389.414 223.594 389.725L229.77 392.009L224.984 394.425L217.059 392.568C215.917 392.297 214.739 392.894 214.433 393.893C214.126 394.892 214.805 395.921 215.949 396.189L219.731 397.076L213.075 400.436C212.049 400.954 211.698 402.1 212.29 402.997C212.688 403.599 213.408 403.935 214.149 403.935C214.512 403.935 214.882 403.854 215.219 403.683L221.881 400.321L220.865 403.635C220.559 404.634 221.237 405.663 222.381 405.931C222.567 405.975 222.754 405.995 222.937 405.995C223.883 405.995 224.75 405.442 225.007 404.605L227.132 397.669L231.915 395.255L231.089 401.075C230.981 401.822 231.397 402.553 232.144 402.931C232.89 403.306 233.823 403.256 234.509 402.802L239.856 399.267V404.098L234.05 409.174C233.213 409.907 233.213 411.093 234.05 411.826C234.887 412.558 236.245 412.558 237.082 411.826L239.856 409.4V416.125C239.856 417.16 240.816 418 242 418C243.184 418 244.145 417.16 244.145 416.125V409.402L246.916 411.826C247.336 412.192 247.884 412.375 248.432 412.375C248.981 412.375 249.529 412.192 249.949 411.826C250.786 411.093 250.786 409.907 249.949 409.174L244.145 404.1V399.27L249.499 402.811C249.88 403.063 250.336 403.19 250.792 403.19C251.211 403.19 251.628 403.084 251.99 402.871C252.75 402.422 253.101 401.602 252.863 400.829L250.982 394.702L256.873 397.676L258.995 404.606C259.251 405.444 260.117 405.996 261.065 405.996C261.248 405.996 261.435 405.976 261.622 405.932C262.765 405.664 263.444 404.636 263.138 403.636L262.126 400.328L268.782 403.688C269.121 403.859 269.488 403.939 269.852 403.939C270.593 403.939 271.313 403.604 271.711 403.002C272.303 402.104 271.952 400.957 270.925 400.44ZM252.987 387.602L247.871 388.801L246.285 388L249.573 386.34L252.987 387.602ZM248.031 378.861L247.43 383.091L244.144 384.751V381.433L248.031 378.861ZM236.897 379.477L239.855 381.434V384.754L238.268 383.954L236.897 379.477ZM231.007 388.398L236.12 387.2L237.705 388L234.419 389.66L231.007 388.398ZM235.964 397.138L236.564 392.907L239.856 391.246V394.565L235.964 397.138ZM247.102 396.524L244.145 394.569V391.25L245.728 392.051L247.102 396.524Z" fill="#EEEEEE"/>
<path d="M210.925 460.44L204.265 457.077L208.055 456.189C209.199 455.921 209.878 454.892 209.571 453.893C209.265 452.894 208.087 452.295 206.945 452.568L199.013 454.426L193.123 451.453L200.128 449.811C201.013 449.604 201.649 448.929 201.713 448.129C201.776 447.331 201.252 446.585 200.408 446.274L194.229 443.99L199.014 441.574L206.944 443.432C207.131 443.476 207.317 443.496 207.5 443.496C208.448 443.496 209.314 442.943 209.571 442.106C209.878 441.106 209.198 440.077 208.055 439.81L204.268 438.923L210.927 435.561C211.953 435.043 212.304 433.897 211.713 433C211.119 432.103 209.808 431.795 208.783 432.314L202.124 435.675L203.138 432.365C203.444 431.365 202.765 430.337 201.622 430.069C200.47 429.798 199.302 430.396 198.996 431.395L196.873 438.327L192.088 440.743L192.914 434.924C193.021 434.176 192.605 433.445 191.859 433.068C191.114 432.693 190.18 432.743 189.494 433.197L184.146 436.732V431.902L189.949 426.828C190.786 426.096 190.786 424.909 189.949 424.177C189.111 423.445 187.754 423.445 186.916 424.177L184.146 426.6V419.875C184.146 418.84 183.185 418 182.001 418C180.817 418 179.857 418.84 179.857 419.875V426.601L177.083 424.174C176.246 423.442 174.888 423.442 174.051 424.174C173.214 424.906 173.214 426.093 174.051 426.826L179.857 431.903V436.731L174.506 433.19C173.774 432.707 172.774 432.683 172.015 433.13C171.255 433.578 170.903 434.398 171.141 435.171L173.02 441.302L167.13 438.33L165.004 431.396C164.698 430.397 163.521 429.799 162.378 430.07C161.234 430.338 160.555 431.367 160.862 432.366L161.876 435.677L155.217 432.315C154.189 431.796 152.879 432.104 152.288 433.001C151.696 433.898 152.046 435.045 153.072 435.562L159.731 438.923L155.946 439.81C154.802 440.078 154.123 441.107 154.43 442.106C154.686 442.944 155.552 443.496 156.5 443.496C156.684 443.495 156.871 443.476 157.057 443.432L164.985 441.574L170.873 444.547L163.873 446.188C162.988 446.395 162.351 447.07 162.289 447.87C162.226 448.668 162.75 449.414 163.594 449.725L169.77 452.009L164.984 454.425L157.059 452.568C155.917 452.297 154.739 452.894 154.433 453.893C154.126 454.892 154.805 455.921 155.949 456.189L159.731 457.076L153.075 460.436C152.049 460.954 151.698 462.1 152.29 462.997C152.688 463.599 153.408 463.935 154.149 463.935C154.512 463.935 154.882 463.854 155.219 463.683L161.881 460.321L160.865 463.635C160.559 464.634 161.237 465.663 162.381 465.931C162.567 465.975 162.754 465.995 162.937 465.995C163.883 465.995 164.75 465.442 165.007 464.605L167.132 457.669L171.915 455.255L171.089 461.075C170.981 461.822 171.397 462.553 172.144 462.931C172.89 463.306 173.823 463.256 174.509 462.802L179.856 459.267V464.098L174.05 469.174C173.213 469.907 173.213 471.093 174.05 471.826C174.887 472.558 176.245 472.558 177.082 471.826L179.856 469.4V476.125C179.856 477.16 180.816 478 182 478C183.184 478 184.145 477.16 184.145 476.125V469.402L186.916 471.826C187.336 472.192 187.884 472.375 188.432 472.375C188.981 472.375 189.529 472.192 189.949 471.826C190.786 471.093 190.786 469.907 189.949 469.174L184.145 464.1V459.27L189.499 462.811C189.88 463.063 190.336 463.19 190.792 463.19C191.211 463.19 191.628 463.084 191.99 462.871C192.75 462.422 193.101 461.602 192.863 460.829L190.982 454.702L196.873 457.676L198.995 464.606C199.251 465.444 200.117 465.996 201.065 465.996C201.248 465.996 201.435 465.976 201.622 465.932C202.765 465.664 203.444 464.636 203.138 463.636L202.126 460.328L208.782 463.688C209.121 463.859 209.488 463.939 209.852 463.939C210.593 463.939 211.313 463.604 211.711 463.002C212.303 462.104 211.952 460.957 210.925 460.44ZM192.987 447.602L187.871 448.801L186.285 448L189.573 446.34L192.987 447.602ZM188.031 438.861L187.43 443.091L184.144 444.751V441.433L188.031 438.861ZM176.897 439.477L179.855 441.434V444.754L178.268 443.954L176.897 439.477ZM171.007 448.398L176.12 447.2L177.705 448L174.419 449.66L171.007 448.398ZM175.964 457.138L176.564 452.907L179.856 451.246V454.565L175.964 457.138ZM187.102 456.524L184.145 454.569V451.25L185.728 452.051L187.102 456.524Z" fill="#EEEEEE"/>
<path d="M330.925 460.44L324.265 457.077L328.055 456.189C329.199 455.921 329.878 454.892 329.571 453.893C329.265 452.894 328.087 452.295 326.945 452.568L319.013 454.426L313.123 451.453L320.128 449.811C321.013 449.604 321.649 448.929 321.713 448.129C321.776 447.331 321.252 446.585 320.408 446.274L314.229 443.99L319.014 441.574L326.944 443.432C327.131 443.476 327.317 443.496 327.5 443.496C328.448 443.496 329.314 442.943 329.571 442.106C329.878 441.106 329.198 440.077 328.055 439.81L324.268 438.923L330.927 435.561C331.953 435.043 332.304 433.897 331.713 433C331.119 432.103 329.808 431.795 328.783 432.314L322.124 435.675L323.138 432.365C323.444 431.365 322.765 430.337 321.622 430.069C320.47 429.798 319.302 430.396 318.996 431.395L316.873 438.327L312.088 440.743L312.914 434.924C313.021 434.176 312.605 433.445 311.859 433.068C311.114 432.693 310.18 432.743 309.494 433.197L304.146 436.732V431.902L309.949 426.828C310.786 426.096 310.786 424.909 309.949 424.177C309.111 423.445 307.754 423.445 306.916 424.177L304.146 426.6V419.875C304.146 418.84 303.185 418 302.001 418C300.817 418 299.857 418.84 299.857 419.875V426.601L297.083 424.174C296.246 423.442 294.888 423.442 294.051 424.174C293.214 424.906 293.214 426.093 294.051 426.826L299.857 431.903V436.731L294.506 433.19C293.774 432.707 292.774 432.683 292.015 433.13C291.255 433.578 290.903 434.398 291.141 435.171L293.02 441.302L287.13 438.33L285.004 431.396C284.698 430.397 283.521 429.799 282.378 430.07C281.234 430.338 280.555 431.367 280.862 432.366L281.876 435.677L275.217 432.315C274.189 431.796 272.879 432.104 272.288 433.001C271.696 433.898 272.046 435.045 273.072 435.562L279.731 438.923L275.946 439.81C274.802 440.078 274.123 441.107 274.43 442.106C274.686 442.944 275.552 443.496 276.5 443.496C276.684 443.495 276.871 443.476 277.057 443.432L284.985 441.574L290.873 444.547L283.873 446.188C282.988 446.395 282.351 447.07 282.289 447.87C282.226 448.668 282.75 449.414 283.594 449.725L289.77 452.009L284.984 454.425L277.059 452.568C275.917 452.297 274.739 452.894 274.433 453.893C274.126 454.892 274.805 455.921 275.949 456.189L279.731 457.076L273.075 460.436C272.049 460.954 271.698 462.1 272.29 462.997C272.688 463.599 273.408 463.935 274.149 463.935C274.512 463.935 274.882 463.854 275.219 463.683L281.881 460.321L280.865 463.635C280.559 464.634 281.237 465.663 282.381 465.931C282.567 465.975 282.754 465.995 282.937 465.995C283.883 465.995 284.75 465.442 285.007 464.605L287.132 457.669L291.915 455.255L291.089 461.075C290.981 461.822 291.397 462.553 292.144 462.931C292.89 463.306 293.823 463.256 294.509 462.802L299.856 459.267V464.098L294.05 469.174C293.213 469.907 293.213 471.093 294.05 471.826C294.887 472.558 296.245 472.558 297.082 471.826L299.856 469.4V476.125C299.856 477.16 300.816 478 302 478C303.184 478 304.145 477.16 304.145 476.125V469.402L306.916 471.826C307.336 472.192 307.884 472.375 308.432 472.375C308.981 472.375 309.529 472.192 309.949 471.826C310.786 471.093 310.786 469.907 309.949 469.174L304.145 464.1V459.27L309.499 462.811C309.88 463.063 310.336 463.19 310.792 463.19C311.211 463.19 311.628 463.084 311.99 462.871C312.75 462.422 313.101 461.602 312.863 460.829L310.982 454.702L316.873 457.676L318.995 464.606C319.251 465.444 320.117 465.996 321.065 465.996C321.248 465.996 321.435 465.976 321.622 465.932C322.765 465.664 323.444 464.636 323.138 463.636L322.126 460.328L328.782 463.688C329.121 463.859 329.488 463.939 329.852 463.939C330.593 463.939 331.313 463.604 331.711 463.002C332.303 462.104 331.952 460.957 330.925 460.44ZM312.987 447.602L307.871 448.801L306.285 448L309.573 446.34L312.987 447.602ZM308.031 438.861L307.43 443.091L304.144 444.751V441.433L308.031 438.861ZM296.897 439.477L299.855 441.434V444.754L298.268 443.954L296.897 439.477ZM291.007 448.398L296.12 447.2L297.705 448L294.419 449.66L291.007 448.398ZM295.964 457.138L296.564 452.907L299.856 451.246V454.565L295.964 457.138ZM307.102 456.524L304.145 454.569V451.25L305.728 452.051L307.102 456.524Z" fill="#EEEEEE"/>
<path d="M391.667 100C387.442 100 382.4 100.658 377.6 101.533C360.15 41.7666 305.525 0 241.667 0C177.8 0 123.183 41.7666 105.733 101.533C100.933 100.658 95.8917 100 91.6667 100C41.125 100 0 141.125 0 191.667C0 242.208 41.125 283.333 91.6667 283.333H391.667C442.208 283.333 483.333 242.208 483.333 191.667C483.333 141.125 442.208 100 391.667 100ZM391.667 250H91.6667C59.5 250 33.3333 223.825 33.3333 191.667C33.3333 159.508 59.5 133.333 91.6667 133.333C93.975 133.333 97.6917 133.9 101.617 134.683V150C101.617 159.2 109.083 166.667 118.283 166.667C127.483 166.667 134.95 159.2 134.95 150V123.117C143.917 71.0333 188.6 33.3333 241.667 33.3333C294.758 33.3333 339.458 71.075 348.4 123.2V150C348.4 159.2 355.867 166.667 365.067 166.667C374.275 166.667 381.733 159.2 381.733 150V134.692C385.65 133.908 389.383 133.333 391.667 133.333C423.825 133.333 450 159.508 450 191.667C450 223.825 423.825 250 391.667 250Z" fill="#EFEFEF"/>
</svg>
