<svg width="484" height="391" viewBox="0 0 484 391" fill="none" xmlns="http://www.w3.org/2000/svg">
<path d="M391.667 100C387.433 100 382.4 100.658 377.592 101.533C360.15 41.7667 305.525 0 241.667 0C177.8 0 123.175 41.7667 105.733 101.533C100.933 100.658 95.8917 100 91.6667 100C41.125 100 0 141.125 0 191.667C0 242.208 41.125 283.333 91.6667 283.333C100.867 283.333 108.333 275.867 108.333 266.667C108.333 257.467 100.867 250 91.6667 250C59.5083 250 33.3333 223.825 33.3333 191.667C33.3333 159.508 59.5083 133.333 91.6667 133.333C93.975 133.333 97.7 133.9 101.617 134.683V150C101.617 159.2 109.083 166.667 118.283 166.667C127.483 166.667 134.95 159.2 134.95 150V123.133C143.908 71.0417 188.592 33.3333 241.667 33.3333C294.767 33.3333 339.467 71.0833 348.4 123.225V150C348.4 159.2 355.867 166.667 365.067 166.667C374.267 166.667 381.733 159.2 381.733 150V134.683C385.642 133.9 389.358 133.333 391.667 133.333C423.825 133.333 450 159.508 450 191.667C450 223.825 423.825 250 391.667 250C382.458 250 375 257.467 375 266.667C375 275.867 382.458 283.333 391.667 283.333C442.208 283.333 483.333 242.208 483.333 191.667C483.333 141.125 442.208 100 391.667 100Z" fill="#42A5F5"/>
<path d="M156.267 254.906C151.743 248.87 141.597 248.87 137.073 254.906C132.279 261.284 116.667 283.256 116.667 298.106C116.667 315.77 129.003 328.106 146.667 328.106C164.331 328.106 176.667 315.77 176.667 298.106C176.667 283.256 161.049 261.284 156.267 254.906Z" fill="#42A5F5"/>
<path d="M346.6 254.527C342.076 248.491 331.93 248.491 327.406 254.527C322.612 260.905 307 282.877 307 297.727C307 315.391 319.336 327.727 337 327.727C354.664 327.727 367 315.391 367 297.727C367 282.877 351.382 260.905 346.6 254.527Z" fill="#42A5F5"/>
<path d="M228.333 289.287C221.683 298.146 200 328.662 200 349.287C200 373.821 217.133 390.954 241.667 390.954C266.2 390.954 283.333 373.821 283.333 349.287C283.333 328.662 261.642 298.146 255 289.287C248.717 280.904 234.617 280.904 228.333 289.287Z" fill="#42A5F5"/>
</svg>
