<svg width="484" height="484" viewBox="0 0 484 484" fill="none" xmlns="http://www.w3.org/2000/svg">
<path d="M391.667 100C387.442 100 382.4 100.658 377.592 101.533C360.15 41.7666 305.525 0 241.667 0C177.8 0 123.175 41.7666 105.733 101.533C100.933 100.658 95.9 100 91.6667 100C41.125 100 0 141.125 0 191.667C0 242.208 41.125 283.333 91.6667 283.333H391.667C442.208 283.333 483.333 242.208 483.333 191.667C483.333 141.125 442.208 100 391.667 100ZM391.667 250H91.6667C59.5083 250 33.3333 223.825 33.3333 191.667C33.3333 159.508 59.5083 133.333 91.6667 133.333C93.975 133.333 97.6917 133.9 101.617 134.683V150C101.617 159.2 109.083 166.667 118.283 166.667C127.483 166.667 134.95 159.2 134.95 150V123.117C143.908 71.0333 188.6 33.3333 241.667 33.3333C294.758 33.3333 339.458 71.075 348.4 123.2V150C348.4 159.2 355.867 166.667 365.067 166.667C374.267 166.667 381.733 159.2 381.733 150V134.692C385.65 133.908 389.383 133.333 391.667 133.333C423.825 133.333 450 159.508 450 191.667C450 223.825 423.825 250 391.667 250Z" fill="#FEFEFE"/>
<path d="M166.667 333.333C175.871 333.333 183.333 325.871 183.333 316.667C183.333 307.462 175.871 300 166.667 300C157.462 300 150 307.462 150 316.667C150 325.871 157.462 333.333 166.667 333.333Z" fill="#FEFEFE"/>
<path d="M316.667 333.333C325.871 333.333 333.333 325.871 333.333 316.667C333.333 307.462 325.871 300 316.667 300C307.462 300 300 307.462 300 316.667C300 325.871 307.462 333.333 316.667 333.333Z" fill="#FEFEFE"/>
<path d="M241.667 383.333C250.871 383.333 258.333 375.871 258.333 366.667C258.333 357.462 250.871 350 241.667 350C232.462 350 225 357.462 225 366.667C225 375.871 232.462 383.333 241.667 383.333Z" fill="#FEFEFE"/>
<path d="M316.667 433.333C325.871 433.333 333.333 425.871 333.333 416.667C333.333 407.462 325.871 400 316.667 400C307.462 400 300 407.462 300 416.667C300 425.871 307.462 433.333 316.667 433.333Z" fill="#FEFEFE"/>
<path d="M241.667 483.333C250.871 483.333 258.333 475.871 258.333 466.667C258.333 457.462 250.871 450 241.667 450C232.462 450 225 457.462 225 466.667C225 475.871 232.462 483.333 241.667 483.333Z" fill="#FEFEFE"/>
<path d="M166.667 433.333C175.871 433.333 183.333 425.871 183.333 416.667C183.333 407.462 175.871 400 166.667 400C157.462 400 150 407.462 150 416.667C150 425.871 157.462 433.333 166.667 433.333Z" fill="#FEFEFE"/>
</svg>
