<svg width="438" height="438" viewBox="0 0 438 438" fill="none" xmlns="http://www.w3.org/2000/svg">
<path d="M336.85 117.817C341.117 117.817 345.383 116.192 348.633 112.933L372.208 89.3583C378.717 82.8499 378.717 72.2999 372.208 65.7916C365.7 59.2832 355.142 59.2832 348.642 65.7916L325.067 89.3666C318.558 95.8749 318.558 106.425 325.067 112.933C328.317 116.192 332.583 117.817 336.85 117.817ZM68.9999 219C68.9999 209.8 61.5332 202.333 52.3333 202.333H18.9999C9.79992 202.333 2.33325 209.8 2.33325 219C2.33325 228.2 9.79992 235.667 18.9999 235.667H52.3333C61.5332 235.667 68.9999 228.2 68.9999 219ZM89.3666 325.067L65.7916 348.642C59.2832 355.15 59.2832 365.7 65.7916 372.208C69.0416 375.467 73.3082 377.092 77.5749 377.092C81.8416 377.092 86.1083 375.467 89.3583 372.208L112.933 348.633C119.442 342.125 119.442 331.575 112.933 325.067C106.433 318.558 95.8666 318.558 89.3666 325.067ZM89.3666 112.933C92.6166 116.192 96.8833 117.817 101.15 117.817C105.417 117.817 109.683 116.192 112.933 112.933C119.442 106.425 119.442 95.8749 112.933 89.3666L89.3583 65.7916C82.8583 59.2832 72.2916 59.2832 65.7916 65.7916C59.2832 72.2999 59.2832 82.8499 65.7916 89.3583L89.3666 112.933ZM219 68.9999C228.2 68.9999 235.667 61.5332 235.667 52.3333V18.9999C235.667 9.79992 228.2 2.33325 219 2.33325C209.8 2.33325 202.333 9.79992 202.333 18.9999V52.3333C202.333 61.5332 209.8 68.9999 219 68.9999ZM419 202.333H385.667C376.467 202.333 369 209.8 369 219C369 228.2 376.467 235.667 385.667 235.667H419C428.2 235.667 435.667 228.2 435.667 219C435.667 209.8 428.2 202.333 419 202.333ZM348.633 325.067C342.133 318.558 331.567 318.558 325.067 325.067C318.558 331.575 318.558 342.125 325.067 348.633L348.642 372.208C351.892 375.467 356.158 377.092 360.425 377.092C364.692 377.092 368.95 375.467 372.208 372.208C378.717 365.7 378.717 355.15 372.208 348.642L348.633 325.067ZM219 369C209.8 369 202.333 376.467 202.333 385.667V419C202.333 428.2 209.8 435.667 219 435.667C228.2 435.667 235.667 428.2 235.667 419V385.667C235.667 376.467 228.2 369 219 369ZM219 102.333C154.667 102.333 102.333 154.667 102.333 219C102.333 283.333 154.667 335.667 219 335.667C283.333 335.667 335.667 283.333 335.667 219C335.667 154.667 283.333 102.333 219 102.333ZM219 302.333C173.05 302.333 135.667 264.95 135.667 219C135.667 173.05 173.05 135.667 219 135.667C264.95 135.667 302.333 173.05 302.333 219C302.333 264.95 264.95 302.333 219 302.333Z" fill="#FDD835" stroke="#FDD835" stroke-width="4"/>
</svg>
