<svg width="484" height="434" viewBox="0 0 484 434" fill="none" xmlns="http://www.w3.org/2000/svg">
<path d="M391.667 100C387.433 100 382.4 100.658 377.592 101.533C360.15 41.7666 305.525 0 241.667 0C177.8 0 123.175 41.7666 105.733 101.533C100.933 100.658 95.8917 100 91.6667 100C41.125 100 0 141.125 0 191.667C0 242.208 41.125 283.333 91.6667 283.333H185.525L152.8 332.425C149.392 337.533 149.075 344.108 151.967 349.533C154.875 354.95 160.525 358.333 166.667 358.333H185.525L152.8 407.425C147.7 415.083 149.767 425.433 157.425 430.533C160.258 432.433 163.475 433.333 166.65 433.333C172.033 433.333 177.317 430.725 180.533 425.908L230.533 350.908C233.942 345.8 234.258 339.225 231.367 333.8C228.458 328.383 222.808 325 216.667 325H197.808L225.583 283.333H268.85L252.792 307.425C249.383 312.533 249.067 319.108 251.958 324.533C254.875 329.95 260.525 333.333 266.667 333.333H285.525L269.467 357.425C264.367 365.083 266.433 375.433 274.092 380.533C276.925 382.433 280.142 383.333 283.317 383.333C288.7 383.333 293.983 380.725 297.2 375.908L330.533 325.908C333.942 320.8 334.258 314.225 331.367 308.8C328.458 303.383 322.808 300 316.667 300H297.808L308.917 283.333H391.667C442.208 283.333 483.333 242.208 483.333 191.667C483.333 141.125 442.208 100 391.667 100ZM391.667 250H91.6667C59.5083 250 33.3333 223.825 33.3333 191.667C33.3333 159.508 59.5083 133.333 91.6667 133.333C93.975 133.333 97.6917 133.9 101.608 134.683V150C101.608 159.2 109.067 166.667 118.275 166.667C127.483 166.667 134.942 159.2 134.942 150V123.175C143.883 71.0667 188.575 33.3333 241.667 33.3333C294.75 33.3333 339.442 71.0667 348.392 123.183V150C348.392 159.2 355.858 166.667 365.058 166.667C374.258 166.667 381.725 159.2 381.725 150V134.692C385.642 133.908 389.383 133.333 391.667 133.333C423.825 133.333 450 159.508 450 191.667C450 223.825 423.825 250 391.667 250Z" fill="#006BB9"/>
</svg>
