<svg width="484" height="484" viewBox="0 0 484 484" fill="none" xmlns="http://www.w3.org/2000/svg">
<path d="M391.667 100C387.433 100 382.4 100.658 377.592 101.533C360.15 41.7666 305.525 0 241.667 0C177.8 0 123.175 41.7666 105.733 101.533C100.933 100.658 95.8917 100 91.6667 100C41.125 100 0 141.125 0 191.667C0 242.208 41.125 283.333 91.6667 283.333H150V416.667C150 425.867 157.458 433.333 166.667 433.333C175.867 433.333 183.333 425.867 183.333 416.667V283.333H300V416.667C300 425.867 307.458 433.333 316.667 433.333C325.867 433.333 333.333 425.867 333.333 416.667V283.333H391.667C442.208 283.333 483.333 242.208 483.333 191.667C483.333 141.125 442.208 100 391.667 100ZM391.667 250H91.6667C59.5083 250 33.3333 223.825 33.3333 191.667C33.3333 159.508 59.5083 133.333 91.6667 133.333C93.975 133.333 97.6917 133.9 101.608 134.683V150C101.608 159.2 109.075 166.667 118.275 166.667C127.475 166.667 134.942 159.2 134.942 150V123.175C143.883 71.0667 188.575 33.3333 241.667 33.3333C294.75 33.3333 339.442 71.0667 348.392 123.183V150C348.392 159.2 355.85 166.667 365.058 166.667C374.267 166.667 381.725 159.2 381.725 150V134.692C385.642 133.908 389.383 133.333 391.667 133.333C423.825 133.333 450 159.508 450 191.667C450 223.825 423.825 250 391.667 250Z" fill="#42A5F5" fill-opacity="0.9"/>
<path d="M241.667 300C232.458 300 225 307.467 225 316.667V466.667C225 475.867 232.458 483.333 241.667 483.333C250.867 483.333 258.333 475.867 258.333 466.667V316.667C258.333 307.467 250.867 300 241.667 300Z" fill="#42A5F5" fill-opacity="0.9"/>
<path d="M100.667 300C91.4583 300 84 307.467 84 316.667V466.667C84 475.867 91.4583 483.333 100.667 483.333C109.867 483.333 117.333 475.867 117.333 466.667V316.667C117.333 307.467 109.867 300 100.667 300Z" fill="#42A5F5" fill-opacity="0.9"/>
<path d="M382.667 300C373.458 300 366 307.467 366 316.667V466.667C366 475.867 373.458 483.333 382.667 483.333C391.867 483.333 399.333 475.867 399.333 466.667V316.667C399.333 307.467 391.867 300 382.667 300Z" fill="#42A5F5" fill-opacity="0.9"/>
</svg>
